<?xml version="1.0" encoding="utf-8"?>
<!-- Generator: Adobe Illustrator 24.2.3, SVG Export Plug-In . SVG Version: 6.00 Build 0)  -->
<svg version="1.1" id="Layer_1" xmlns="http://www.w3.org/2000/svg" xmlns:xlink="http://www.w3.org/1999/xlink" x="0px" y="0px"
	 viewBox="0 0 1850 3000" style="enable-background:new 0 0 1850 3000;" xml:space="preserve">
<style type="text/css">
	.st0{clip-path:url(#SVGID_2_);}
	.st1{fill:#2B5233;}
	.st2{fill:#C76E4F;}
	.st3{fill:#BAD4DB;}
	.st4{fill:#253746;}
</style>
<g>
	<g>
		<defs>
			<rect id="SVGID_1_" x="-0.6" y="0.6" width="1850" height="3000"/>
		</defs>
		<clipPath id="SVGID_2_">
			<use xlink:href="#SVGID_1_"  style="overflow:visible;"/>
		</clipPath>
		<g class="st0">
			<path class="st1" d="M1585.4,2005.2c-29.7-9.1-60.9-14.1-89.6-25.5s-55.8-30.8-66-58.8s7-72,36.6-82.5
				c59.9-21.3,105.3,78.2,167,62.6c33.9-8.6,50.6-49.7,40-81s-40.1-54.8-72.8-65.4c-177.5-57.6-197.4-107.5-204.4-175
				c2-35,22.1-81.1,57.4-92c38.8-12,71.3,25.8,94.6,56.8c25.5,33.8,54.6,64.8,86.8,92.3c14.2,12.1,31.9,24.3,50.8,20.3
				c26.2-5.6,35.2-38,30.4-62.8c-14.7-76-97.7-116.5-165.2-158.5c-55.7-34.6-106.2-77.2-149.7-126.3c-18.2-20.6-35.4-43-42-69.3
				s-0.3-57.4,22-75c35-27.4,93-17.3,124.3,12.5c222.3,211.6,192.3-9.7,197.6-52.7s1.8-76.1,15.1-117.7c8-25.1,23.7-48.9,46.9-63.3
				s54.6-17.7,78.1-4.8c43.6,24,37.6,72.4,37.2,120.9c-0.3,48.5-6.6,88.4,9.8,133.9c3.8,10.5,8.9,21.8,19.5,26.2
				c17.2,7.2,36.1-7.7,47.7-22.4c23.4-30,51.4-67.2,72.3-98.8c20.9-31.6,48.3-61.6,84.8-74.9c36.6-13.2,83.5-4.5,102.4,27.3
				c22.9,38.6-3.4,87.8-33.6,122.9c-43.2,50.4-95.4,93.2-140.9,141.7c-45.5,48.5-85.3,105.2-95.6,169c-4.4,27.3-16,43.8,7.7,59
				c29.9,19.2,157.6-95.9,187.3-123.8c110.9-104.4,185.2,65.8,72.1,159.9c-91.1,75.8-191.6,89.1-248.9,170.7
				c-8.4,11.9-15.7,26.3-11.6,39.9c5.6,18.8,31.1,25.9,51.1,20.4s41.8-21.2,58-33.8c16.2-12.6,35.1-24.6,55.7-23.9
				c39,1.3,57.2,49.2,43.5,84.3c-38.7,99-245.2,31.3-318.7,193c-21,46.2-75.5,82.1-122.8,46.1
				C1674.7,2042,1643.6,2023.2,1585.4,2005.2"/>
			<path class="st2" d="M171.8,2119.8c0.3,54,1.5,108.1,10.3,161.3c18.1,108.9,64.4,217.3,154,295.6
				c114.8,100.3,283.1,135.4,438.7,96.8c47.9-12,94.1-30,137.5-53.5c36-19.5,70.2-42.3,102.2-68c139.2-111.9,198.4-252,217.3-414.3
				c5.6-48.5,7.8-97.4,6.7-146.2c-2-91.6-16.8-193.1-87.1-264.5c-58-58.9-142.5-76.8-221.7-85.3c-98.2-10.6-197-15.3-295.8-14
				c-109.5,1.5-235.1,0.9-336.1,48.9c-38.4,18.3-69.7,45.7-87.1,81.3c-42.3,86.6-41.4,196.7-39.6,288.8
				C171.7,2070.9,171.7,2095.3,171.8,2119.8"/>
			<path class="st3" d="M1665.4,878.6c18-83.7-9.7-135.6-81.2-179.6S1430,584.3,1449.9,501.1c13.4-56.1,68.7-85.9,102.5-130.6
				c67.8-89.9-23.1-248.7-113.8-318.5s-217.7-66.1-313.7-12s-164.4,151-212,254.9c-21.6,47-41,98.1-80,129.8
				c-60.2,48.8-145.9,49.3-198.6,107C594.4,575.3,583,637,602.7,695.9c33.9,101.3,97,206.9,164.8,284.1
				c52.9,60.2,160,165.7,243.5,174.3c92.1,9.5,154.4-50.2,220.7-96.7c87.6-61.4,144.7-64.2,242.9-50.8
				C1549,1017,1648.8,955.4,1665.4,878.6 M1689.8,637.4c13.1-3.7,25.3-10.2,35.6-19c50.9-48.1,63.8-110.5,10.1-164.5
				c-10.7-10.8-21.3-19.5-32.1-25.9c-27.4-16.2-55.6-16.7-88.1,5.5c-43.6,29.7-68.9,59.4-66,98.9c0.1,1.4,0.2,2.7,0.4,4
				c0,0.8,0.1,1.6,0.2,2.4c0.8,7.9,3.2,15.6,7.1,22.5c6.3,13.4,15.6,25.7,25.4,36C1608.7,625.2,1653.5,656.1,1689.8,637.4"/>
			<path class="st4" d="M-260.4,658.9c-15.3,7.8-30.3,16.5-44.8,25.8c-30,19.4-58.2,41.4-84.2,65.8c-15,13.9-29.2,28.6-42.8,43.9
				c-87.9,99.3-142.7,223.2-166.5,342.8c-24.7,124.3-20.7,254.9,34.3,346.5c57.4,95.5,166.5,131.7,279.2,140.8
				c115.3,9.3,238-3.6,360.5-35.2c113.2-29.2,254.5-75.9,334.7-195.1c37.9-56.3,51.6-119.4,57.9-179.2
				c7.5-70.7,10.8-140.8,15.9-210.9c4.9-67.3,11.5-135.5,11.4-201.7c-0.1-59.4-6.3-118.8-29.7-166.8
				c-23.3-47.8-63.2-78.7-113.4-93.1c-51.4-14.8-109.8-13.2-167.3-8.3c-25.8,2.2-51.6,4.8-77.2,7.9c-26.4,3.2-52.8,7.1-78.9,12
				c-26.8,5-53.4,10.9-79.7,18.1s-52.6,15.4-77.9,25.6C-211.5,631.2-244.7,650.9-260.4,658.9"/>
		</g>
	</g>
</g>
</svg>
