<?xml version="1.0" encoding="utf-8"?>
<!-- Generator: Adobe Illustrator 24.2.3, SVG Export Plug-In . SVG Version: 6.00 Build 0)  -->
<svg version="1.1" id="Layer_1" xmlns="http://www.w3.org/2000/svg" xmlns:xlink="http://www.w3.org/1999/xlink" x="0px" y="0px"
	 viewBox="0 0 1850 3000" style="enable-background:new 0 0 1850 3000;" xml:space="preserve">
<style type="text/css">
	.st0{clip-path:url(#SVGID_2_);}
	.st1{fill:#2B5233;}
	.st2{fill:#E0BF9E;}
	.st3{fill:#C66E4E;}
	.st4{fill:#B9D3DC;}
</style>
<g>
	<g>
		<defs>
			<rect id="SVGID_1_" width="1850" height="3000"/>
		</defs>
		<clipPath id="SVGID_2_">
			<use xlink:href="#SVGID_1_"  style="overflow:visible;"/>
		</clipPath>
		<g class="st0">
			<path class="st1" d="M1493.7,1435c-29.7-9.1-60.9-14.1-89.6-25.5s-55.8-30.8-66-58.8s7-72,36.6-82.5
				c59.9-21.4,105.3,78.2,167,62.6c33.9-8.6,50.6-49.7,40-81s-40.1-54.8-72.8-65.4c-177.5-57.6-197.4-107.5-204.4-175
				c2-35,22.1-81.1,57.4-92c38.8-12,71.3,25.8,94.6,56.8c25.5,33.8,54.6,64.8,86.8,92.3c14.2,12.1,31.9,24.3,50.8,20.3
				c26.2-5.6,35.2-38,30.4-62.8c-14.7-76-97.7-116.5-165.2-158.5c-55.8-34.7-106.2-77.2-149.8-126.4c-18.2-20.5-35.4-43-42-69.3
				s-0.3-57.4,22-75c35-27.4,93-17.3,124.3,12.5c222.3,211.6,192.3-9.7,197.6-52.7s1.8-76.1,15.1-117.7c8-25.1,23.7-49,46.9-63.3
				s54.6-17.7,78.1-4.8c43.6,24,37.6,72.4,37.2,120.9s-6.6,88.4,9.8,133.9c3.8,10.5,8.9,21.8,19.5,26.3c17.2,7.2,36.1-7.7,47.7-22.4
				c23.4-30,51.4-67.2,72.3-98.8s48.3-61.6,84.8-74.9c36.6-13.2,83.5-4.5,102.4,27.3c22.9,38.6-3.4,87.8-33.6,122.9
				c-43.2,50.4-95.4,93.2-140.9,141.7s-85.3,105.3-95.6,169c-4.4,27.3-16,43.8,7.7,59c29.9,19.2,157.6-95.9,187.3-123.8
				c110.9-104.4,185.2,65.8,72.1,159.9c-91.1,75.8-191.6,89.1-248.9,170.7c-8.4,11.9-15.7,26.3-11.6,39.9
				c5.6,18.8,31.1,25.9,51.1,20.4s41.8-21.2,58-33.8s35.1-24.6,55.7-23.9c39,1.3,57.2,49.2,43.5,84.3c-38.7,99-245.2,31.3-318.7,193
				c-21,46.2-75.5,82.1-122.8,46.1C1583,1471.7,1551.8,1452.8,1493.7,1435"/>
			<path class="st2" d="M-624.1,2019.7c50.7,69,108,82.6,188.3,58.2s188.1-39.5,237.2,30.5c33.1,47.2,18.8,108.3,29.9,163.3
				c22.4,110.4,201.5,147.5,313.9,125.9s193.8-119.2,216.9-227s-4.2-223.2-50.4-327.7c-21-47.3-46.4-95.7-44.2-145.9
				c3.3-77.5,59.7-141.9,51.4-219.7c-6.3-58.7-45-108.2-102.1-132.5c-98.3-41.8-219.2-64.5-322-64.8
				c-80.1-0.2-230.1,10.1-291.9,66.9c-68.2,62.7-64.7,148.9-73.8,229.4c-12.1,106.3-47.8,150.9-122.9,215.6
				C-650.7,1840.8-670.7,1956.4-624.1,2019.7 M-459.7,2197.8c-5.9,12.3-9.1,25.7-9.4,39.3c2.3,70,40.5,121,116.5,116.6
				c15.2-0.9,28.8-3,40.6-6.9c30.3-9.8,49.3-30.6,54.3-69.6c6.6-52.3,1.2-91-30.4-115c-1.1-0.9-2.2-1.6-3.2-2.4
				c-0.6-0.5-1.3-1-2-1.4c-6.4-4.6-13.8-7.9-21.5-9.6c-14.3-4.1-29.6-5.4-43.8-4.9C-396.8,2145.1-449.6,2158.2-459.7,2197.8"/>
			<path class="st3" d="M1402.8,1758.3c-15.3,7.8-30.3,16.5-44.8,25.8c-30,19.4-58.2,41.4-84.2,65.8c-14.9,13.9-29.2,28.6-42.8,43.9
				c-87.9,99.2-142.7,223.2-166.5,342.8c-24.7,124.3-20.7,254.9,34.3,346.5c57.3,95.5,166.5,131.7,279.2,140.8
				c115.3,9.3,238-3.6,360.5-35.2c113.2-29.2,254.5-75.9,334.7-195.1c37.9-56.3,51.6-119.4,57.9-179.2
				c7.5-70.7,10.8-140.8,15.9-210.9c4.9-67.4,11.5-135.5,11.4-201.7c-0.1-59.4-6.3-118.8-29.7-166.8
				c-23.3-47.8-63.1-78.7-113.4-93.1c-51.4-14.8-109.8-13.2-167.2-8.3c-25.8,2.2-51.6,4.8-77.2,7.9c-26.4,3.2-52.8,7.1-79,12
				c-26.8,5-53.4,10.9-79.7,18.1s-52.6,15.4-77.9,25.6C1451.6,1730.6,1418.4,1750.3,1402.8,1758.3"/>
			<path class="st4" d="M-362.2,28.3c-15.3,7.8-30.3,16.5-44.8,25.8c-30,19.4-58.2,41.4-84.2,65.8c-14.9,13.9-29.2,28.6-42.8,43.9
				c-87.9,99.3-142.7,223.2-166.5,342.8c-24.7,124.3-20.7,254.9,34.3,346.5c57.3,95.5,166.5,131.7,279.2,140.8
				c115.3,9.3,238-3.6,360.5-35.2c113.2-29.4,254.5-76,334.7-195.2c37.9-56.3,51.6-119.4,57.9-179.2c7.5-70.7,10.8-140.8,15.9-210.9
				c4.9-67.3,11.5-135.5,11.4-201.7c-0.1-59.4-6.3-118.8-29.7-166.8c-23.3-47.8-63.1-78.7-113.4-93.1C199-103,140.6-101.4,83.2-96.5
				C57.4-94.3,31.7-91.7,6-88.6c-26.4,3.2-52.8,7.1-78.9,12c-26.8,5-53.4,10.9-79.7,18.1s-52.6,15.4-77.9,25.6
				C-313.3,0.5-346.5,20.3-362.2,28.3"/>
		</g>
	</g>
</g>
</svg>
