<?xml version="1.0" encoding="utf-8"?>
<!-- Generator: Adobe Illustrator 23.1.0, SVG Export Plug-In . SVG Version: 6.00 Build 0)  -->
<svg version="1.1" id="kuvio" xmlns="http://www.w3.org/2000/svg" xmlns:xlink="http://www.w3.org/1999/xlink" x="0px" y="0px"
	 viewBox="0 0 2834.7 1771.7" style="enable-background:new 0 0 2834.7 1771.7;" xml:space="preserve">
<style type="text/css">
	.st0{fill:#264086;}
	.st1{fill:#365ABD;}
	.st2{fill:#3356B3;}
	.st3{fill:#3050A9;}
	.st4{fill:#2D4B9E;}
	.st5{fill:#2A4692;}
</style>
<title>VN-navigaatio-taustakuvio_1</title>
<rect class="st0" width="2834.6" height="1771.7"/>
<path class="st1" d="M597.2,1285.5c1.5-1.1,3.2-1.6,5-1.6l0,0c1.1,3.5-0.1,7.3-3.1,9.4c-1.4,1.1-3.2,1.6-5,1.6l0,0
	C593,1291.5,594.2,1287.7,597.2,1285.5z"/>
<path class="st1" d="M597.2,1299.2L597.2,1299.2c1.4-4.4,6.2-6.9,10.6-5.4c0.9,0.3,1.7,0.7,2.4,1.2l0,0c-1.4,4.4-6.2,6.9-10.6,5.4
	C598.7,1300.2,597.9,1299.8,597.2,1299.2z"/>
<path class="st1" d="M597.2,1304.5L597.2,1304.5c3.8-2.7,9.1-1.9,11.8,1.9c0.5,0.7,0.9,1.5,1.2,2.3l0,0c-3,2.1-7,2.1-9.9,0
	C598.8,1307.6,597.8,1306.2,597.2,1304.5L597.2,1304.5z"/>
<path class="st1" d="M599.1,1310.3c3,2.2,4.2,6,3.1,9.5c-3.7,0-6.9-2.4-8-5.8c-0.6-1.7-0.6-3.5,0-5.2l0,0
	C595.9,1308.7,597.7,1309.3,599.1,1310.3z"/>
<path class="st1" d="M592.3,1314.5c1.1,3.5-0.1,7.3-3.1,9.5l0,0c-3-2.2-4.2-6-3.1-9.5c0.6-1.7,1.6-3.2,3.1-4.2l0,0
	C590.6,1311.4,591.7,1312.8,592.3,1314.5z"/>
<path class="st1" d="M584.2,1313.9c-1.1,3.5-4.4,5.8-8,5.8l0,0c-1.4-4.4,1-9.2,5.4-10.7c0.8-0.3,1.7-0.4,2.6-0.4
	C584.8,1310.4,584.8,1312.2,584.2,1313.9z"/>
<path class="st1" d="M568.1,1308.7L568.1,1308.7c1.1-3.5,4.4-5.8,8-5.8c1.8,0,3.6,0.6,5,1.6l0,0c-1.1,3.5-4.4,5.8-8,5.8
	C571.3,1310.3,569.6,1309.7,568.1,1308.7z"/>
<path class="st1" d="M573.1,1293.4c3.6,0,6.9,2.4,8,5.8l0,0c1.4,4.4-1,9.2-5.4,10.6c-4.4,1.4-9.2-1-10.6-5.4
	c-1.4-4.4,1-9.2,5.4-10.6C571.3,1293.5,572.2,1293.4,573.1,1293.4z"/>
<path class="st1" d="M581.1,1285.5c3,2.2,4.2,6,3.1,9.5l0,0c-4.7,0-8.4-3.8-8.4-8.5c0-0.9,0.1-1.7,0.4-2.6l0,0
	C578,1283.9,579.7,1284.5,581.1,1285.5z"/>
<path class="st1" d="M586.1,1289.2c-1.1-3.5,0.1-7.3,3.1-9.5c3.8,2.7,4.6,8,1.9,11.8c-0.5,0.7-1.2,1.4-1.9,1.9
	C587.7,1292.3,586.7,1290.9,586.1,1289.2z"/>
<path class="st1" d="M610.2,1259.2c3.8-2.8,8.3-4.2,13-4.2l0,0c3.8,11.6-2.6,24.1-14.2,27.9c-2.2,0.7-4.5,1.1-6.9,1.1l0,0
	C599.2,1274.8,602.5,1264.8,610.2,1259.2L610.2,1259.2z"/>
<path class="st1" d="M610.2,1295L610.2,1295c3.8-11.6,16.3-18,27.9-14.2c2.2,0.7,4.3,1.8,6.2,3.1l0,0c-3.8,11.6-16.3,18-27.9,14.2
	C614.2,1297.4,612.1,1296.4,610.2,1295z"/>
<path class="st1" d="M610.2,1308.7L610.2,1308.7c9.9-7.2,23.7-5,30.9,4.9c1.4,1.9,2.4,4,3.1,6.2l0,0c-9.9,7.2-23.7,5-30.9-4.9
	C612,1313,610.9,1310.9,610.2,1308.7z"/>
<path class="st1" d="M615.2,1324c7.7,5.7,11,15.6,8,24.8l0,0c-12.2,0-22.1-9.9-22.1-22.2c0-2.3,0.4-4.6,1.1-6.8l0,0
	C606.8,1319.7,611.4,1321.2,615.2,1324z"/>
<path class="st1" d="M597.2,1335.1c3,9.1-0.3,19.1-8,24.8l0,0c-9.9-7.2-12.1-21-4.9-30.9c1.4-1.9,3-3.5,4.9-4.9l0,0
	C593,1326.7,595.8,1330.6,597.2,1335.1z"/>
<path class="st1" d="M563.2,1324c3.8-2.7,8.3-4.2,13-4.2l0,0c3.8,11.6-2.6,24.1-14.2,27.9c-2.2,0.7-4.5,1.1-6.8,1.1l0,0
	C552.2,1339.6,555.4,1329.7,563.2,1324L563.2,1324z"/>
<path class="st1" d="M534.1,1319.8L534.1,1319.8c3.8-11.6,16.3-18,27.9-14.2c2.2,0.7,4.3,1.8,6.2,3.1l0,0
	c-3.8,11.6-16.3,18-27.9,14.2C538,1322.2,535.9,1321.1,534.1,1319.8z"/>
<path class="st1" d="M547.1,1279.7c9.6,0,18,6.2,21,15.3l0,0c-9.9,7.2-23.7,5-30.9-4.9c-1.4-1.9-2.4-4-3.1-6.2l0,0
	C537.8,1281.2,542.4,1279.7,547.1,1279.7z"/>
<path class="st1" d="M568.1,1259.2c7.7,5.7,11,15.6,8,24.8l0,0c-12.2,0-22.1-10-22.1-22.2c0-2.3,0.4-4.6,1.1-6.8l0,0
	C559.8,1254.9,564.3,1256.4,568.1,1259.2z"/>
<path class="st1" d="M589.2,1243.8L589.2,1243.8c9.9,7.2,12.1,21,4.9,30.9c-1.4,1.9-3,3.6-4.9,4.9l0,0c-9.9-7.2-12.1-21-4.9-30.9
	C585.6,1246.8,587.3,1245.2,589.2,1243.8z"/>
<path class="st2" d="M534.1,1190.1c20.3,14.8,28.8,40.9,21,64.8l0,0c-32,0-58-26-57.9-58.1c0-6.1,1-12.1,2.8-17.8l0,0
	C512.2,1179,524.2,1182.9,534.1,1190.1z"/>
<path class="st2" d="M644.3,1190.1c9.9-7.2,21.8-11.1,34.1-11.1l0,0c9.9,30.5-6.8,63.2-37.3,73.1c-5.8,1.9-11.8,2.8-17.8,2.8l0,0
	C615.5,1231.1,623.9,1204.9,644.3,1190.1L644.3,1190.1z"/>
<path class="st2" d="M644.3,1283.9L644.3,1283.9c9.9-30.4,42.5-47.1,73-37.2c5.8,1.9,11.3,4.7,16.2,8.2l0,0
	c-9.9,30.4-42.5,47.1-73,37.2C654.7,1290.3,649.2,1287.5,644.3,1283.9z"/>
<path class="st2" d="M644.3,1319.8L644.3,1319.8c25.9-18.8,62.1-13.1,80.9,12.8c3.6,4.9,6.4,10.4,8.2,16.2l0,0
	c-25.9,18.8-62.1,13.1-80.9-12.8C648.9,1331,646.2,1325.6,644.3,1319.8z"/>
<path class="st2" d="M623.2,1348.8L623.2,1348.8c32,0,58,26,57.9,58.1c0,6.1-1,12.1-2.8,17.8l0,0c-32,0-58-26-57.9-58.1
	C620.4,1360.5,621.4,1354.5,623.2,1348.8z"/>
<path class="st2" d="M610.2,1388.8c7.8,23.9-0.7,50.1-21.1,64.8l0,0c-25.9-18.8-31.6-55.1-12.8-81c3.6-4.9,7.9-9.2,12.8-12.8l0,0
	C599.1,1367,606.5,1377.2,610.2,1388.8z"/>
<path class="st2" d="M521,1359.8c9.9-7.2,21.8-11.1,34.1-11.1l0,0c9.9,30.5-6.8,63.2-37.3,73.1c-5.8,1.9-11.8,2.8-17.8,2.8l0,0
	C492.2,1400.8,500.7,1374.6,521,1359.8L521,1359.8z"/>
<path class="st2" d="M444.9,1348.8L444.9,1348.8c9.9-30.4,42.5-47.1,73-37.2c5.8,1.9,11.3,4.7,16.2,8.2l0,0
	c-9.9,30.4-42.5,47.1-73,37.2C455.3,1355.1,449.8,1352.3,444.9,1348.8z"/>
<path class="st2" d="M479,1243.8c25.1,0,47.4,16.2,55.1,40.1l0,0c-25.9,18.8-62.1,13.1-80.9-12.8c-3.6-4.9-6.4-10.4-8.2-16.2l0,0
	C454.8,1247.7,466.8,1243.8,479,1243.8z"/>
<path class="st2" d="M589.2,1150.1L589.2,1150.1c25.9,18.8,31.6,55.1,12.8,81c-3.6,4.9-7.9,9.2-12.8,12.8l0,0
	c-25.9-18.8-31.6-55.1-12.8-81C579.9,1157.9,584.3,1153.6,589.2,1150.1z"/>
<path class="st3" d="M444.9,1009.3c53.2,38.7,75.4,107.2,55.1,169.7l0,0c-83.8,0-151.8-68-151.7-151.9c0-15.9,2.5-31.7,7.4-46.8l0,0
	C387.8,980.3,419,990.5,444.9,1009.3z"/>
<path class="st3" d="M733.5,1009.3c25.9-18.9,57.1-29,89.2-29l0,0c25.9,79.7-17.7,165.3-97.4,191.3c-15.1,4.9-31,7.4-46.9,7.4l0,0
	C658,1116.5,680.3,1048,733.5,1009.3L733.5,1009.3z"/>
<path class="st3" d="M733.5,1254.9L733.5,1254.9c25.8-79.7,111.4-123.3,191.1-97.5c15.2,4.9,29.5,12.2,42.4,21.6l0,0
	c-25.8,79.7-111.4,123.3-191.1,97.5C760.7,1271.6,746.4,1264.3,733.5,1254.9z"/>
<path class="st3" d="M733.5,1348.8L733.5,1348.8c67.8-49.3,162.6-34.2,211.9,33.5c9.4,12.9,16.7,27.2,21.6,42.4l0,0
	c-67.8,49.3-162.6,34.2-211.9-33.5C745.7,1378.2,738.4,1363.9,733.5,1348.8z"/>
<path class="st3" d="M678.3,1424.6L678.3,1424.6c83.8,0,151.8,68,151.7,151.9c0,15.9-2.5,31.7-7.4,46.8l0,0
	c-83.8,0-151.8-68-151.7-151.9C670.9,1455.6,673.4,1439.8,678.3,1424.6L678.3,1424.6z"/>
<path class="st3" d="M644.3,1529.5c20.3,62.5-1.9,131-55.1,169.7l0,0c-67.8-49.3-82.8-144.3-33.5-212.1
	c9.3-12.9,20.7-24.2,33.5-33.5l0,0C615.1,1472.4,634.4,1499,644.3,1529.5z"/>
<path class="st3" d="M410.8,1453.6c25.9-18.9,57.1-29,89.2-29l0,0c25.9,79.7-17.7,165.3-97.4,191.3c-15.2,4.9-31,7.4-46.9,7.4l0,0
	C335.4,1560.8,357.6,1492.3,410.8,1453.6z"/>
<path class="st3" d="M211.4,1424.6L211.4,1424.6c25.9-79.7,111.4-123.3,191.1-97.5c15.2,4.9,29.5,12.2,42.4,21.6l0,0
	c-25.9,79.7-111.4,123.3-191.1,97.5C238.6,1441.3,224.3,1434,211.4,1424.6L211.4,1424.6z"/>
<path class="st3" d="M300.6,1150.1c65.7,0,124,42.4,144.3,104.9l0,0c-67.8,49.2-162.7,34.2-211.9-33.6
	c-9.4-12.9-16.6-27.2-21.6-42.3l0,0C237.3,1160.2,268.6,1150,300.6,1150.1z"/>
<path class="st3" d="M589.2,904.5L589.2,904.5c67.8,49.3,82.8,144.3,33.5,212.1c-9.4,12.9-20.7,24.2-33.5,33.5l0,0
	c-67.8-49.3-82.8-144.3-33.5-212.1C565,925.1,576.3,913.8,589.2,904.5z"/>
<path class="st4" d="M355.7,734.8c-25.8-79.9-76.3-149.4-144.3-198.7c-61.7-45-135.2-71.1-211.4-75.2v299
	c67.1,135.1,204.9,220.5,355.7,220.5l0,0C381.8,900.6,381.8,814.6,355.7,734.8z"/>
<path class="st4" d="M966.9,536.1c67.8-49.4,149.6-76,233.5-75.9l0,0c67.9,208.7-46.3,432.8-255,500.7
	c-39.7,12.9-81.1,19.5-122.8,19.5l0,0C769.5,816.6,827.7,637.3,966.9,536.1z"/>
<path class="st4" d="M966.9,1179L966.9,1179c67.7-208.6,291.6-322.9,500.2-255.2c39.7,12.9,77.2,32,111,56.5l0,0
	c-67.7,208.6-291.6,322.9-500.2,255.2C1038.2,1222.7,1000.7,1203.6,966.9,1179z"/>
<path class="st4" d="M966.9,1424.6L966.9,1424.6c177.4-128.9,425.8-89.6,554.7,87.8c24.5,33.8,43.6,71.2,56.5,110.9l0,0
	c-177.4,128.9-425.8,89.6-554.7-87.8C998.9,1501.8,979.8,1464.3,966.9,1424.6L966.9,1424.6z"/>
<path class="st4" d="M1132.2,1771.6c-75.5-93.7-189.3-148.2-309.6-148.3l0,0c-15.6,47.8-21.9,98.1-18.6,148.3H1132.2z"/>
<path class="st4" d="M665.3,1771.6c-22.1-27.4-47.7-51.8-76.1-72.4l0,0c-28.5,20.7-54.1,45-76.2,72.4H665.3z"/>
<path class="st4" d="M374.4,1771.6c3.2-50.2-3.1-100.5-18.7-148.3l0,0c-120.3,0.1-234.1,54.6-309.6,148.3H374.4z"/>
<path class="st4" d="M211.4,1424.6c-61.7-45-135.2-71.1-211.4-75.3v313.5c23.6-10.9,46.1-24.1,67.1-39.4
	C135.1,1574.1,185.6,1504.5,211.4,1424.6L211.4,1424.6z"/>
<path class="st4" d="M67.1,980.4C46.1,965,23.6,951.8,0,940.9v313.4c76.3-4.1,149.7-30.3,211.4-75.3l0,0
	C185.6,1099.2,135.1,1029.6,67.1,980.4z"/>
<path class="st4" d="M589.2,261.5L589.2,261.5C766.7,390.6,806,639.2,676.9,816.7c-24.5,33.7-54.1,63.3-87.8,87.8l0,0
	c-177.6-129.1-216.8-377.7-87.7-555.3C525.9,315.6,555.5,286,589.2,261.5L589.2,261.5z"/>
<path class="st1" d="M0,382.3C30.3,257.2,37,127.6,19.7,0H0V382.3z"/>
<path class="st1" d="M1158.6,0c-20.9,154.6-6.6,311.9,41.8,460.2l0,0c212.2,0.2,426.4-64.3,611.2-198.7
	c98.8-71.6,184.2-160.2,252.2-261.5H1158.6z"/>
<path class="st1" d="M2834.6,296.3c-87.3-23.2-177.2-34.9-267.6-34.8c-212.2-0.2-426.4,64.4-611.2,198.7
	c-171.8,124.7-307.2,302.8-377.7,520.2l0,0c171.6,124.9,382.8,198.7,611.2,198.7c212.2,0.2,426.4-64.3,611.2-198.7
	c11.5-8.4,22.9-17,34.1-25.8L2834.6,296.3z"/>
<path class="st1" d="M2834.6,1649.2c-11.1-8.8-22.5-17.4-34.1-25.9c-171.6-124.9-382.8-198.7-611.2-198.7
	c-212.2-0.2-426.4,64.3-611.2,198.7l0,0c16.5,50.9,36.9,100.5,61,148.3h1195.5V1649.2z"/>
<path class="st1" d="M337,0c68,101.3,153.4,189.8,252.2,261.5l0,0C688,189.8,773.3,101.3,841.4,0H337z"/>
<path class="st4" d="M0,382.3C30.3,257.2,37,127.6,19.7,0H0V382.3z"/>
<path class="st5" d="M1158.6,0c-20.9,154.6-6.6,311.9,41.8,460.2l0,0c212.2,0.2,426.4-64.3,611.2-198.7
	c98.8-71.6,184.2-160.2,252.2-261.5H1158.6z"/>
<path class="st5" d="M2834.6,296.3c-87.3-23.2-177.2-34.9-267.6-34.8c-212.2-0.2-426.4,64.4-611.2,198.7
	c-171.8,124.7-307.2,302.8-377.7,520.2l0,0c171.6,124.9,382.8,198.7,611.2,198.7c212.2,0.2,426.4-64.3,611.2-198.7
	c11.5-8.4,22.9-17,34.1-25.8L2834.6,296.3z"/>
<path class="st5" d="M2834.6,1649.2c-11.1-8.8-22.5-17.4-34.1-25.9c-171.6-124.9-382.8-198.7-611.2-198.7
	c-212.2-0.2-426.4,64.3-611.2,198.7l0,0c16.5,50.9,36.9,100.5,61,148.3h1195.5V1649.2z"/>
<path class="st4" d="M337,0c68,101.3,153.4,189.8,252.2,261.5l0,0C688,189.8,773.3,101.3,841.4,0H337z"/>
</svg>
