<svg xmlns="http://www.w3.org/2000/svg" viewBox="0 0 356.18 106.77"><defs><style>.cls-1{fill:#253746;}</style></defs><title>YM_logo_official_fi_sv_en_RGB_1colour</title><g id="Layer_2" data-name="Layer 2"><g id="Layer_1-2" data-name="Layer 1"><path class="cls-1" d="M54.79,27.58A1.14,1.14,0,0,0,54,27.5a.79.79,0,0,0-.34.23,1.07,1.07,0,0,0-.18.39,1.87,1.87,0,0,0-.05.88.81.81,0,0,0,.27.56.75.75,0,0,0,.44.09,2.33,2.33,0,0,0,.52-.13l1.62-.61.34-.14-.46-.35A8.87,8.87,0,0,0,54.79,27.58Z"/><path class="cls-1" d="M105,10.21A17.11,17.11,0,0,0,94,1.14,34.23,34.23,0,0,0,84.69,0,119.29,119.29,0,0,0,67.6,1.44,106.52,106.52,0,0,0,54.24,4.17c-1.26.35-2.52.73-3.76,1.14A106.36,106.36,0,0,0,37.34,11q-1.5.73-3,1.5A61,61,0,0,0,28,16.34c-.77.54-1.53,1.1-2.27,1.68a61.75,61.75,0,0,0-9.81,9.65A67.79,67.79,0,0,0,8.3,39.35,74.78,74.78,0,0,0,3.2,51.91a67.75,67.75,0,0,0-1.79,7.14C-1,71.15-.6,83.86,4.75,92.77c5.58,9.3,16.21,12.83,27.18,13.72A107.18,107.18,0,0,0,67,103.05c11-2.84,24.77-7.39,32.58-19,3.69-5.48,5-11.63,5.64-17.44.73-6.88,1.06-13.71,1.55-20.54.48-6.56,1.12-13.19,1.11-19.63C107.9,20.67,107.3,14.88,105,10.21ZM76.22,22.28c2.43-.26,4.64-.48,7-.64a9.5,9.5,0,0,1,3.5.8c-1.3.84-2.44,1.89-4.05,2.12-3.7.55-8.25,1.21-11.18,1.62C72.74,23.85,74.53,22.45,76.22,22.28ZM54,23.46a24.34,24.34,0,0,0,1.6-8.17A2.67,2.67,0,0,1,57,17.84c0,.44,0,.71.36.73a1.49,1.49,0,0,1,1.43,1.14,2.2,2.2,0,0,0-2,1.36c-.3.67,0,1,.32,1.18s.85.24,1.66-.73c-.18,1.25.27,1.6.56,1.73s.79.12,1.09-.56a2.17,2.17,0,0,0-.3-2.37,1.42,1.42,0,0,1,1.34-.66c.56.15.85-.23,1.16-.82a1.73,1.73,0,0,1,1.85-.79A1.74,1.74,0,0,1,65.14,20c-.23.62-.32,1.09.16,1.42a1.38,1.38,0,0,1,.39,1.43,2.15,2.15,0,0,0-2,1.35c-.31.68,0,1,.31,1.19s.85.23,1.66-.73c-.18,1.24.27,1.59.56,1.73s.79.11,1.09-.56a2.17,2.17,0,0,0-.3-2.37,1.5,1.5,0,0,1,1.81.31c.29.28.46.07.78-.22a2.68,2.68,0,0,1,2.87-.62,24.05,24.05,0,0,0-5,6.63.31.31,0,0,1-.4.15l-2-.88a1.7,1.7,0,0,0,.24-1.6,2,2,0,0,0-1.66-1.05,6.35,6.35,0,0,0-.85-.07,4.2,4.2,0,0,0-2.25.62l-.07,0-3.39-1.51-3-1.36A.3.3,0,0,1,54,23.46ZM41.19,21.9c.77-.1,1.54-.21,2.32-.26.33,0,.76-.11,1,.27s-.15.58-.38.81a1.6,1.6,0,0,0-.49,1.09c-.06,1.76.18,1.94,2,1.73s4.53-.48,6-.63a2,2,0,0,1-.43,1.6,6.28,6.28,0,0,1-3.62,2.23c-.32.05-2.65.23-2.83.3h0a.42.42,0,0,0-.27.38,2.35,2.35,0,0,0,.68,2.25c.3.25.87.32.69.86-.12.38-.72.43-1.14.47-.72.08-1.38.11-2.11.19-.24,0-.51.11-.65-.18a.52.52,0,0,1,.12-.67c.85-.63.67-1.51.57-2.36-.22-1.79-.48-3.57-.67-5.36A1.79,1.79,0,0,0,41,23a.64.64,0,0,1-.43-.66C40.57,22,40.93,21.93,41.19,21.9ZM40.13,44.84a3.59,3.59,0,0,0,.11.57,2.75,2.75,0,0,1,.17.67s0,.06,0,.09,0,.3-.19.31a.68.68,0,0,1-.36-.1c-.17-.1-.34-.18-.52-.27l-1.88-1-1.83-.93a.8.8,0,0,1-.46-.78c0-.94-.08-1.89-.17-2.82-.06-.75.23-.93.82-.52,1.8,1.23,3.29.84,4.6-.78a3.67,3.67,0,0,1,.58-.6c.59-.44,1.31.14,1.69.42,1.36,1,.48,1.6-.34,2.21l-.22.15a5.94,5.94,0,0,0-.92.66,3.48,3.48,0,0,0-.67.76,2.61,2.61,0,0,0-.38.89A3,3,0,0,0,40.13,44.84Zm1.35-1.26a4,4,0,0,1,1.7-1.47c1-.55,1-.76,2.89.23a3.4,3.4,0,0,1,1.28.81c.32.56-.36.67-.77,1.46a7.07,7.07,0,0,0-.43.93,6.47,6.47,0,0,0-.36,1.8c-.08,1.1-.47.89-1.21.53,0,0-2-1-2.27-1.16a2.11,2.11,0,0,1-.7-1.12A2.56,2.56,0,0,1,41.48,43.58Zm5.82-5.11a2.12,2.12,0,0,1-2.16-1.63c-.15-1,.51-1.75,1.73-2.25-.83,1.51-.11,2.59,1.8,2.33a23,23,0,0,1,4.21-.64,2.59,2.59,0,0,1,2.39,1.29c-2.09-.93-3.81-.18-5.58.42A5.87,5.87,0,0,1,47.3,38.47ZM31.53,26.32c1.14-.12,1.37-.34,1.49-.8a1.38,1.38,0,0,1,1-1.25c.8-.23,1.37.68,1.37.68a1.08,1.08,0,0,1,.8-.91c.81-.19,1.48.8,1.48.8s-.08-.56.8-.8a1,1,0,0,1,.57,0,1.6,1.6,0,0,1,.7.59,2.24,2.24,0,0,1,.35.75c0,.19.08.38.11.56l.09.51c0,.2.07.4.11.61s.06.44.1.66l.09.69.06.69c0,.22,0,.43,0,.65a5.8,5.8,0,0,1,0,.59,4.23,4.23,0,0,1-.05.5,1.52,1.52,0,0,1-.12.36c-.57,1.14-.45,2.28-.11,4.34s-.67,3.82-2.28,4.1a2.07,2.07,0,0,1-.9,0,4.42,4.42,0,0,1-.88-.41c-.23-.16-1.2-.87-1.34-1.63-.28-1.54-.62-4.44-.76-5.09a4.17,4.17,0,0,1-.2-.75c0-.11.08-.18.29-.25,0,0,.8-.18,1.08-.27l1.11-.33c1.14-.34,2.26-1.47,1.94-2.51-.24-.79-.75-.62-.8-.45a2.06,2.06,0,0,1-1.59,1.59c-.8.12-1-.91-1-.91A.89.89,0,0,1,35,29a1.17,1.17,0,0,1-.77.58c-.15.05-1.38.28-1.44.3s0,.4,0,.45c.06.22.08.44-.19.53a.6.6,0,0,1-.21,0,4.93,4.93,0,0,1-2.22-.58,2.17,2.17,0,0,1-.95-1.94C29.14,27.34,30.39,26.43,31.53,26.32ZM68.35,90.86c-8.4,1.78-16.08-.29-23.41-4.32-.13-.07-2.22-1.26-2.48-1.32a.69.69,0,0,0-.69.23,1.49,1.49,0,0,0-.41,1.93,1.5,1.5,0,0,1-.58,2.1,1.54,1.54,0,0,1-2.05-.4,1.6,1.6,0,0,1,0-2.11,24.1,24.1,0,0,1,1.55-2.06c.35-.43.24-.67-.24-.91-2-1-3.91-2.08-5.89-3.07-1.16-.58-1.65-.36-2.11.91a6.39,6.39,0,0,0-.34,1.6.13.13,0,0,1-.17.11c-2.3-.9-3.35-2.47-2.44-4.79A4.67,4.67,0,0,1,35,76.19c.4.18.73.25.35.84-.89,1.42-.47,2.17,1.36,3,.8.34.71.35.65-.31-.14-1.5-.08-2.58,1.94-4.5-.94-.15-2.61-.23-3-.85-.92-1.49-1.67-1.29-2.93-.67.24-2.08,2.76-3.19,5.73-3,.22,0,.54.06.52-.26s-1-.82-1.59-1.15A1,1,0,0,1,37.5,68c.63-1.2-.83-1.87-1.54-1.89,2.29-1.7,6.54,0,7.64,3.24.32,1,.53,2,.88,2.93C45,73.71,45.62,74,47,73.65a10.1,10.1,0,0,0,5-2.65,4.27,4.27,0,0,0,1.28-3.8c-.11-.69-.19-1.38-.33-2.06-.4-1.88,0-2.86,1.76-3.69a65.89,65.89,0,0,1,7.57-2.53c.45-.15.67,0,.85.44.77,1.63,1.53,3.26,2.36,4.87.35.69,0,.83-.53,1-1.76.42-3.5.88-5.25,1.29-.9.2-1.24.63-1,1.57a24.61,24.61,0,0,0,1,3.14c.59,1.66.33,2.17-1.27,2.83-1.89.79-3.76,1.63-5.65,2.42a1.5,1.5,0,0,0-1,1.22C51.31,80.3,48,82.06,46.36,82a3.43,3.43,0,0,0,1-3.61,3.33,3.33,0,0,0-1.71-2c-2-.94-3.8,0-4.83,2.53a1.8,1.8,0,0,0-2.84,1c-.21.54,0,.55.41.75L41.54,82c.22.09.46.24.67,0a.6.6,0,0,0,.12-.78A2.15,2.15,0,0,1,42,80.09a1.5,1.5,0,0,1,.91-1.29,1.47,1.47,0,0,1,1.89.39,1.5,1.5,0,0,1,.08,2c-.38.53-1.32,1-1,1.58a1.09,1.09,0,0,0,.39.32c1.72.8,13.63,4.27,22.21,2.19.72,3,3.86,3.52,6.58,3.57A12.86,12.86,0,0,1,68.35,90.86ZM83.7,80c-.23,2-.89,3.13-2.25,3.87a1.72,1.72,0,0,0,0-1,1,1,0,0,0-1.35-.77c-.61.3-.84,2.22-1.11,3-.48,1.36-.94,1.57-2.33,1.14A4.4,4.4,0,0,0,76.58,89a6.15,6.15,0,0,1-2.34-4.92c-.62.39-1.15.74-1.7,1.07-.39.23-.79.56-1.27.3-1.64-.89-2,.3-2.35,1.28-1.06-2-.16-4.39,2-6,.22-.18-.13-.35-.35-.38-.62-.06-2.18.12-2.32-.29-.41-1.25-1.4-1.39-2.44-.87.35-2.35,3.46-3.61,6.16-3a7.78,7.78,0,0,1,2.55,1.17,7.1,7.1,0,0,0,2.78,1.26,1.25,1.25,0,0,0,1.61-1.21,5.43,5.43,0,0,0-4-6.09,16.87,16.87,0,0,1-3.26-1.09,6,6,0,0,1-3.15-3.11c-1.27-2.85-2.67-5.63-4-8.46a1.31,1.31,0,0,0-1.27-.9,29.27,29.27,0,0,1-6-.94A6.18,6.18,0,0,1,54.2,55a1.46,1.46,0,0,0-1.52-.48c-3.27.59-6.54,1.16-9.82,1.67-.67.11-.84.49-1.06,1a3.54,3.54,0,0,1-4,2.19c.29-.19,1-.69.4-1.43-.91-1.11-.91-1.14-1.83,0-1.14,1.42-2,1.6-3.56.66-.48-.29-1.17.23-1.09,1.33-1.21-1.43-.82-2.66.23-4.92-.79-.07-2.73.18-3.05-.59-.61-1.45-1.84-1.31-3-.47.66-2.41,3.44-3.66,6.33-3.47-.58-.94-2.58-1.37-2.31-2.39.39-1.47-.4-2.2-1.42-2.07,1.17-2,5.74-.34,7.23,2.26a7.51,7.51,0,0,1,.85,2.42,1.67,1.67,0,0,0,2,1.54c5.2-.53,11.19-2.48,12.59-5.39-1.83,1-2.16.27-3.21.84a1.89,1.89,0,0,0-.71.59,4.12,4.12,0,0,1-.13-1.17c.09-1.26.8-2,1.85-3.14.15-.16.53-.46.3-.58-1.58-.85,0-1.26.11-2.48A2.33,2.33,0,0,1,50.06,39a4.35,4.35,0,0,0,3.62,1.74,3.1,3.1,0,0,0,1.83-.6,4.65,4.65,0,0,0,1.58-5.17A2.59,2.59,0,0,0,55,33a2.8,2.8,0,0,0-2.81,1,3.92,3.92,0,0,0-.57,1.09,1.41,1.41,0,0,0-.94-.6c-.71-.15-1.44-.36-1.55-1.11a1.63,1.63,0,0,0-.68-1.19c-.56-.44-.34-1,.11-1.49.88-.92,2.06-1.87,3-2.75a5.36,5.36,0,0,0,1.57-2.3c.19-.65.47-.8,1.14-.47,1.73.83,3.51,1.57,5.26,2.38a1.49,1.49,0,0,0,1.6,0,3.36,3.36,0,0,1,2.37-.4c.72.11,1.2.35.62,1.15s-.34,1.24.59,1.56a27.25,27.25,0,0,1,2.74,1.23c-.58,1.2-1.8.5-2.45,1.51a13.74,13.74,0,0,1,1.74.83,3.25,3.25,0,0,1,1.33,1.43,1.77,1.77,0,0,0-1.08.19,6.67,6.67,0,0,1-2.11,1.3,4.64,4.64,0,0,0,2.23.45,2.18,2.18,0,0,0,1-.23,2,2,0,0,1,.21,1.21,3.1,3.1,0,0,1-1.9,2.45,13.64,13.64,0,0,1-1.34.49,4.68,4.68,0,0,1,1.71,3.66A3.13,3.13,0,0,1,66,46.59a9.08,9.08,0,0,0-5.69-1.34c.42,1.72,2.23,3.89,3,4.74A3.86,3.86,0,0,1,65,47.59a12.22,12.22,0,0,0,4.94,7.25,11.26,11.26,0,0,0,3,1.2,8.05,8.05,0,0,0,2.59.09A6.63,6.63,0,0,0,81,49.45,6.9,6.9,0,0,0,79.86,46a.11.11,0,0,1,0-.17c.46-.16,2,0,2.38.64a8.4,8.4,0,0,1-3.47,10.9,14.45,14.45,0,0,1-4.12,1.33.39.39,0,0,0-.33.56c.06.18,2.28,6.95,2.45,7.42.73,2,1.47,2.29,3.47,1.61,2.83-1,3.61-.43,3.61,2.63A81.31,81.31,0,0,1,83.7,80Zm2.17-38.88A8,8,0,0,1,81.41,44c-.44.11-3,.56-4.22.84a3,3,0,0,0-2.43,2.92,2.75,2.75,0,0,0,1.5,2.55c-.06.65-1.54,1.19-2.31.72a2.72,2.72,0,0,1-1.06-1.74s-1.29.09-1,1.86a2,2,0,0,1-1-.55A1.86,1.86,0,0,1,71,47.76s-1.08-.18-.87-1.17a.36.36,0,0,1,0-.11,1.93,1.93,0,0,1,.45-.77,4.54,4.54,0,0,1,1.08-.87,6.42,6.42,0,0,1,.9-.47,28.28,28.28,0,0,1,5.76-1.75,18.43,18.43,0,0,0,3.37-.95,5,5,0,0,0,2.91-6.74,5.46,5.46,0,0,0-7-2.92c-3.19,1.2-4.17,3.92-3.05,6.62a7.6,7.6,0,0,0,1.9,2.76.12.12,0,0,1-.06.2c-2.13.54-3.12-.2-3.88-1.88-2.11-4.58.51-9.19,5.75-10.12a7.37,7.37,0,0,1,8.74,6.13A7.05,7.05,0,0,1,85.87,41.12Z"/><path class="cls-1" d="M356.18,70.68h-1.84V68.21h-1.75v2.47h-1.81v1.45h1.81V80h1.75V72.13h1.84Zm-10.09-.28A3.58,3.58,0,0,0,343,72l-.17-1.3H341.4V80h1.75V74.47A2.36,2.36,0,0,1,345.66,72c1.27,0,2.14.72,2.14,2.64V80h1.77V74.22c0-2.47-1.42-3.82-3.48-3.82m-14,4.2A2.72,2.72,0,0,1,335,71.88a2.57,2.57,0,0,1,2.7,2.72Zm7.4,2.59h-1.71a2.73,2.73,0,0,1-2.7,1.61,2.86,2.86,0,0,1-3-2.93h7.32a4.89,4.89,0,0,0,.08-1.06A4.22,4.22,0,0,0,335,70.4a4.92,4.92,0,0,0,.06,9.83,4.25,4.25,0,0,0,4.41-3M325.12,70.4a3.17,3.17,0,0,0-3,1.88,3.3,3.3,0,0,0-5.72-.42l-.12-1.18h-1.57V80h1.76V74.28a2.22,2.22,0,0,1,2.19-2.36,2,2,0,0,1,2.07,2.3V80h1.73V74.3a2.22,2.22,0,0,1,2.23-2.38c1.21,0,2,.7,2,2.3V80h1.73V73.84a3.12,3.12,0,0,0-3.31-3.44m-16.33,0A3.59,3.59,0,0,0,305.73,72l-.17-1.3h-1.45V80h1.75V74.47A2.36,2.36,0,0,1,308.37,72c1.27,0,2.13.72,2.13,2.64V80h1.77V74.22c0-2.47-1.41-3.82-3.48-3.82M294,75.34a3.21,3.21,0,1,1,3.18,3.33A3.17,3.17,0,0,1,294,75.34m-1.82,0a5,5,0,1,0,5-4.94,4.8,4.8,0,0,0-5,4.94m-1.46-4.75a2.37,2.37,0,0,0-2.41,1.5l-.21-1.41h-1.54V80h1.75V75c0-2,1.21-3.08,3.29-2.79V70.68a4.11,4.11,0,0,0-.88-.09M282.29,80h1.76v-9.3h-1.76Zm.87-11.58a1.26,1.26,0,0,0,1.29-1.29,1.22,1.22,0,0,0-1.29-1.24,1.24,1.24,0,0,0-1.29,1.24,1.27,1.27,0,0,0,1.29,1.29m-11.61,2.28L275.3,80h1.75l3.88-9.3H279.1l-1.16,2.93c-.59,1.47-1.73,4.51-1.73,4.51s-1.08-3-1.67-4.51l-1.09-2.93Zm-4.34-.28A3.58,3.58,0,0,0,264.15,72l-.17-1.3h-1.46V80h1.75V74.47A2.36,2.36,0,0,1,266.78,72c1.27,0,2.13.72,2.13,2.64V80h1.78V74.22c0-2.47-1.42-3.82-3.48-3.82m-6.67-2.23V66.46h-8.35V80h8.35V78.29H254V74h5.91V72.38H254V68.17ZM237.63,74.6a2.72,2.72,0,0,1,2.91-2.72,2.57,2.57,0,0,1,2.7,2.72Zm7.4,2.59h-1.7a2.74,2.74,0,0,1-2.7,1.61,2.86,2.86,0,0,1-3-2.93h7.32a4.89,4.89,0,0,0,.08-1.06,4.22,4.22,0,0,0-4.45-4.41,4.92,4.92,0,0,0,.07,9.83,4.25,4.25,0,0,0,4.4-3M225.83,80h1.75V74.47A2.39,2.39,0,0,1,230.13,72c1.06,0,2.13.55,2.13,2.64V80H234V74.22c0-2.47-1.35-3.82-3.43-3.82a3.49,3.49,0,0,0-3,1.54V65.51h-1.75Zm-1.42-9.3h-1.83V68.21h-1.75v2.47H219v1.45h1.82V80h1.75V72.13h1.83ZM212.58,66.9a3.17,3.17,0,0,1,.68.06V65.51a5,5,0,0,0-1-.09c-1.85,0-3,.85-3,3.06v2.2h-1.69v1.45h1.69V80H211V72.13h2.28V70.68H211V68.82c0-.8,0-1.92,1.6-1.92m-13.89,8.44a3.21,3.21,0,1,1,3.19,3.33,3.17,3.17,0,0,1-3.19-3.33m-1.81,0a5,5,0,1,0,5-4.94,4.8,4.8,0,0,0-5,4.94m-7.78-4.66-2.85,7.59-2.93-7.59h-1.88l4,9.78-.33.89a1.85,1.85,0,0,1-2,1.46,6.12,6.12,0,0,1-1.18-.15v1.43a5.7,5.7,0,0,0,1.46.21c1.87,0,2.74-1,3.35-2.51L191,70.68Zm-9.34-.09a2.37,2.37,0,0,0-2.41,1.5l-.21-1.41H175.6V80h1.75V75c0-2,1.21-3.08,3.29-2.79V70.68a4.11,4.11,0,0,0-.88-.09m-5.57.09h-1.84V68.21H170.6v2.47h-1.81v1.45h1.81V80h1.75V72.13h1.84ZM164.1,80.23c2.28,0,3.73-1.12,3.73-2.89a2.57,2.57,0,0,0-2.3-2.59l-1.87-.42c-.55-.13-1.33-.34-1.33-1.25s.67-1.33,1.71-1.33a1.68,1.68,0,0,1,1.9,1.54h1.7c-.06-1.73-1.47-2.89-3.58-2.89s-3.5,1.12-3.5,2.83c0,1.2.67,2.17,2.38,2.55l1.64.38c.62.13,1.44.38,1.44,1.35s-.74,1.37-1.92,1.37-2-.53-2.09-1.5H160.3c.11,1.73,1.63,2.85,3.8,2.85M156.65,80h1.75v-9.3h-1.75Zm.86-11.58a1.26,1.26,0,0,0,1.29-1.29,1.22,1.22,0,0,0-1.29-1.24,1.24,1.24,0,0,0-1.29,1.24,1.27,1.27,0,0,0,1.29,1.29m-6.74,2A3.59,3.59,0,0,0,147.71,72l-.17-1.3h-1.45V80h1.75V74.47A2.36,2.36,0,0,1,150.35,72c1.27,0,2.13.72,2.13,2.64V80h1.77V74.22c0-2.47-1.41-3.82-3.48-3.82M141.83,80h1.75v-9.3h-1.75Zm.87-11.58A1.25,1.25,0,0,0,144,67.11a1.21,1.21,0,0,0-1.28-1.24,1.24,1.24,0,0,0-1.29,1.24,1.27,1.27,0,0,0,1.29,1.29m-5.29-1.94-4.7,11.07-4.66-11.07h-1.73V80h1.79V75.61c0-2.11-.06-3.58-.19-5.15l3.9,9.14h1.71l4-9.22c-.09,1.52-.15,2.89-.15,5.23V80h1.79V66.48Z"/><path class="cls-1" d="M251.59,49h-1.84V46.51H248V49h-1.81v1.45H248v7.85h1.75V50.43h1.84ZM238,52.9a2.72,2.72,0,0,1,2.91-2.72,2.57,2.57,0,0,1,2.7,2.72Zm7.4,2.6h-1.71a2.72,2.72,0,0,1-2.7,1.6,2.88,2.88,0,0,1-3-2.93h7.32A4.56,4.56,0,0,0,241,48.7a4.56,4.56,0,0,0-4.69,4.9A4.58,4.58,0,0,0,241,58.53a4.26,4.26,0,0,0,4.41-3m-12.81,2.78h1.75V49h-1.75Zm.86-11.58a1.26,1.26,0,0,0,1.29-1.29,1.22,1.22,0,0,0-1.29-1.24,1.24,1.24,0,0,0-1.28,1.24,1.27,1.27,0,0,0,1.28,1.29m-3.12,2.19a2.36,2.36,0,0,0-2.4,1.5L227.75,49h-1.54v9.3H228v-5c0-2,1.2-3.08,3.29-2.78V49a5,5,0,0,0-.89-.09m-13.49,4a2.72,2.72,0,0,1,2.91-2.72,2.57,2.57,0,0,1,2.7,2.72Zm7.41,2.6h-1.71a2.73,2.73,0,0,1-2.7,1.6,2.87,2.87,0,0,1-3-2.93h7.32a4.89,4.89,0,0,0,.08-1.06,4.22,4.22,0,0,0-4.45-4.41,4.55,4.55,0,0,0-4.68,4.9,4.58,4.58,0,0,0,4.75,4.93,4.27,4.27,0,0,0,4.41-3M214.41,49h-1.84V46.51h-1.75V49H209v1.45h1.81v7.85h1.75V50.43h1.84Zm-10.09,9.55c2.28,0,3.73-1.11,3.73-2.89a2.57,2.57,0,0,0-2.3-2.59l-1.88-.42c-.54-.13-1.32-.34-1.32-1.25s.67-1.33,1.7-1.33,1.86.57,1.9,1.54h1.71c-.06-1.73-1.47-2.89-3.58-2.89s-3.51,1.12-3.51,2.83c0,1.2.68,2.17,2.39,2.55l1.64.38c.61.13,1.44.38,1.44,1.35s-.74,1.37-1.92,1.37-2-.52-2.09-1.49h-1.71c.11,1.73,1.62,2.84,3.8,2.84m-7.46-.25h1.76V49h-1.76Zm.87-11.58A1.26,1.26,0,0,0,199,45.41a1.22,1.22,0,0,0-1.29-1.24,1.25,1.25,0,0,0-1.29,1.24,1.27,1.27,0,0,0,1.29,1.29m-6.74,2a3.59,3.59,0,0,0-3.06,1.59L187.76,49h-1.45v9.28h1.75V52.77a2.35,2.35,0,0,1,2.51-2.48c1.26,0,2.13.71,2.13,2.63v5.36h1.77V52.52c0-2.47-1.41-3.82-3.48-3.82m-8.94,9.58h1.75V49h-1.75Zm.86-11.58a1.25,1.25,0,0,0,1.29-1.29,1.22,1.22,0,0,0-1.29-1.24,1.24,1.24,0,0,0-1.28,1.24,1.27,1.27,0,0,0,1.28,1.29m-6.6,2a3.18,3.18,0,0,0-3,1.88,3.29,3.29,0,0,0-5.71-.42L167.45,49h-1.56V58.3h1.75V52.58a2.22,2.22,0,0,1,2.19-2.36,2,2,0,0,1,2.07,2.3V58.3h1.73V52.61a2.22,2.22,0,0,1,2.24-2.39c1.2,0,2,.7,2,2.3V58.3h1.73V52.14a3.12,3.12,0,0,0-3.31-3.44m-20.54,4.94A3.21,3.21,0,1,1,159,57a3.17,3.17,0,0,1-3.18-3.33m-1.82,0a5,5,0,1,0,5-4.94,4.8,4.8,0,0,0-5,4.94m6.77-5.8a1,1,0,0,0,1.06-1,1.07,1.07,0,1,0-2.13,0,1,1,0,0,0,1.07,1m-3.54,0a1.05,1.05,0,0,0,1.08-1,1.08,1.08,0,0,0-2.16,0,1.05,1.05,0,0,0,1.08,1m-6.83,14.6h1.75V49h-1.75Zm.86-15.74a1.26,1.26,0,0,0,1.29-1.29,1.22,1.22,0,0,0-1.29-1.24,1.25,1.25,0,0,0-1.29,1.24,1.27,1.27,0,0,0,1.29,1.29m-5.13,11.58h1.75V43.81h-1.75Zm-4.25,0h1.75V49h-1.75Zm.87-11.58A1.25,1.25,0,0,0,144,45.41a1.21,1.21,0,0,0-1.28-1.24,1.25,1.25,0,0,0-1.29,1.24,1.27,1.27,0,0,0,1.29,1.29m-5.29-1.94-4.7,11.07-4.66-11.07h-1.73V58.28h1.79V53.91c0-2.11-.06-3.58-.19-5.14l3.9,9.13h1.71l4-9.22c-.09,1.52-.15,2.89-.15,5.23v4.37h1.79V44.78Z"/><path class="cls-1" d="M284.3,31.94a3.21,3.21,0,1,1,6.41,0,3.21,3.21,0,1,1-6.41,0m-1.82,0a5,5,0,1,0,5-4.93,4.8,4.8,0,0,0-5,4.93m6.78-5.8a1.06,1.06,0,1,0-1.08-1,1,1,0,0,0,1.08,1m-3.55,0a1.06,1.06,0,1,0-1.07-1,1,1,0,0,0,1.07,1m-6.83,10.44h1.75v-9.3h-1.75ZM279.74,25A1.26,1.26,0,0,0,281,23.71a1.22,1.22,0,0,0-1.29-1.24,1.24,1.24,0,0,0-1.28,1.24A1.26,1.26,0,0,0,279.74,25m-3.12,2.2a2.34,2.34,0,0,0-2.4,1.49L274,27.28h-1.54v9.3h1.75v-5c0-2,1.2-3.08,3.29-2.78v-1.5a5.12,5.12,0,0,0-.89-.08m-13.49,4A2.72,2.72,0,0,1,266,28.48a2.58,2.58,0,0,1,2.7,2.72Zm7.4,2.6h-1.7a2.73,2.73,0,0,1-2.7,1.6,2.86,2.86,0,0,1-3-2.93h7.32a4.89,4.89,0,0,0,.08-1.06,4.21,4.21,0,0,0-4.45-4.4,4.55,4.55,0,0,0-4.68,4.89,4.59,4.59,0,0,0,4.75,4.94,4.26,4.26,0,0,0,4.4-3m-9.87-6.52h-1.83V24.81h-1.75v2.47h-1.82v1.46h1.82v7.84h1.75V28.74h1.83Zm-10.08,9.56c2.27,0,3.73-1.12,3.73-2.89a2.58,2.58,0,0,0-2.3-2.6l-1.88-.42c-.54-.13-1.33-.34-1.33-1.25s.68-1.32,1.71-1.32,1.86.57,1.9,1.54h1.71c-.06-1.73-1.48-2.89-3.59-2.89s-3.5,1.11-3.5,2.82c0,1.2.68,2.17,2.39,2.55l1.64.38c.61.13,1.44.38,1.44,1.35s-.74,1.38-1.92,1.38-2-.53-2.09-1.5h-1.71c.1,1.73,1.62,2.85,3.8,2.85m-7.46-.26h1.75v-9.3h-1.75ZM244,25a1.26,1.26,0,0,0,1.29-1.29A1.22,1.22,0,0,0,244,22.47a1.25,1.25,0,0,0-1.29,1.24A1.27,1.27,0,0,0,244,25m-6.74,2a3.58,3.58,0,0,0-3.06,1.58L234,27.28h-1.45v9.28h1.75V31.08a2.35,2.35,0,0,1,2.51-2.49c1.26,0,2.13.71,2.13,2.63v5.36h1.77V30.82c0-2.46-1.41-3.81-3.48-3.81m-8.94,9.57h1.75v-9.3h-1.75ZM229.17,25a1.26,1.26,0,0,0,1.29-1.29,1.22,1.22,0,0,0-1.29-1.24,1.24,1.24,0,0,0-1.28,1.24A1.27,1.27,0,0,0,229.17,25m-6.6,2a3.17,3.17,0,0,0-3,1.87,3.06,3.06,0,0,0-3-1.87,3.1,3.1,0,0,0-2.73,1.45l-.12-1.18h-1.56V36.6h1.75V30.89a2.22,2.22,0,0,1,2.19-2.37,2,2,0,0,1,2.07,2.3V36.6h1.73V30.91a2.22,2.22,0,0,1,2.24-2.39c1.2,0,2,.7,2,2.3V36.6h1.73V30.44A3.12,3.12,0,0,0,222.57,27M202,31.94a3.21,3.21,0,1,1,6.41,0,3.21,3.21,0,1,1-6.41,0m-1.82,0a5,5,0,1,0,5-4.93,4.8,4.8,0,0,0-5,4.93m6.77-5.8a1.06,1.06,0,1,0-1.07-1,1,1,0,0,0,1.07,1m-3.54,0a1.06,1.06,0,1,0-1.08-1,1,1,0,0,0,1.08,1m-3.87,1.14h-1.84V24.81H196v2.47h-1.81v1.46H196v7.84h1.75V28.74h1.84Zm-10.09,9.56c2.28,0,3.73-1.12,3.73-2.89a2.57,2.57,0,0,0-2.3-2.6L189,30.93c-.55-.13-1.33-.34-1.33-1.25s.67-1.32,1.71-1.32,1.85.57,1.89,1.54H193C193,28.17,191.55,27,189.44,27s-3.51,1.11-3.51,2.82c0,1.2.68,2.17,2.39,2.55l1.64.38c.62.13,1.44.38,1.44,1.35s-.74,1.38-1.92,1.38-2-.53-2.09-1.5h-1.71c.11,1.73,1.63,2.85,3.8,2.85M182,36.58h1.75v-9.3H182ZM182.89,25a1.26,1.26,0,0,0,1.29-1.29,1.22,1.22,0,0,0-1.29-1.24,1.25,1.25,0,0,0-1.29,1.24A1.27,1.27,0,0,0,182.89,25m-3.12,2.2a2.34,2.34,0,0,0-2.4,1.49l-.22-1.41h-1.53v9.3h1.75v-5c0-2,1.2-3.08,3.29-2.78v-1.5a5.12,5.12,0,0,0-.89-.08m-11.48,8.05c-1.79,0-3-1.33-3-3.33a3,3,0,0,1,3-3.33,3,3,0,0,1,3,3.29c0,2-1.22,3.37-3.06,3.37m3.4-8-.15,1.5A3.91,3.91,0,0,0,168,27c-2.66,0-4.53,2-4.53,4.95s1.83,4.88,4.41,4.88a4,4,0,0,0,3.58-1.9v1.64h1.65v-9.3ZM169.79,26a1,1,0,0,0,1.06-1,1.07,1.07,0,1,0-2.13,0,1,1,0,0,0,1.07,1m-3.54,0a1,1,0,0,0,1.07-1,1.08,1.08,0,1,0-1.07,1m-9,9.28c-1.8,0-3-1.26-3-3.29s1.2-3.37,3-3.37,3,1.31,3,3.33a3,3,0,0,1-3,3.33M157.6,27A4,4,0,0,0,154,28.93l-.15-1.65h-1.44V40.74h1.71V35.19a3.92,3.92,0,0,0,3.42,1.65c2.64,0,4.52-2,4.52-4.9S160.22,27,157.6,27m-10.91,0a3.17,3.17,0,0,0-3,1.87,3.3,3.3,0,0,0-5.71-.42l-.13-1.18h-1.56V36.6H138V30.89a2.22,2.22,0,0,1,2.19-2.37,2,2,0,0,1,2.07,2.3V36.6H144V30.91a2.22,2.22,0,0,1,2.24-2.39c1.2,0,2,.7,2,2.3V36.6H150V30.44A3.12,3.12,0,0,0,146.69,27m-21.74-4,4.72,8v5.57h1.84V31l4.66-8h-2l-1.81,3.16c-.93,1.61-1.73,3.08-1.73,3.08s-.72-1.41-1.69-3.08l-1.81-3.16Z"/></g></g></svg>