<svg xmlns="http://www.w3.org/2000/svg" viewBox="0 0 356.18 106.77"><defs><style>.cls-1{fill:#e0c09f;}.cls-2{fill:#253746;}.cls-3{fill:#fff;}</style></defs><title>YM_logo_official_fi_sv_en_RGB_2colour_white</title><g id="Layer_2" data-name="Layer 2"><g id="Layer_1-2" data-name="Layer 1"><path class="cls-1" d="M34.37,12.54A61,61,0,0,0,28,16.34c-.77.54-1.53,1.1-2.27,1.68a61.75,61.75,0,0,0-9.81,9.65A67.79,67.79,0,0,0,8.3,39.35,74.78,74.78,0,0,0,3.2,51.91a67.75,67.75,0,0,0-1.79,7.14C-1,71.15-.6,83.86,4.75,92.77c5.58,9.3,16.21,12.83,27.18,13.72A107.18,107.18,0,0,0,67,103.05c11-2.84,24.77-7.39,32.58-19,3.69-5.48,5-11.63,5.64-17.44.73-6.88,1.06-13.71,1.55-20.54.48-6.56,1.12-13.19,1.11-19.63,0-5.78-.61-11.57-2.89-16.24A17.07,17.07,0,0,0,94,1.15,33.85,33.85,0,0,0,84.69,0,119.29,119.29,0,0,0,67.6,1.44,106.52,106.52,0,0,0,54.24,4.17c-1.26.35-2.52.73-3.76,1.14A106.36,106.36,0,0,0,37.34,11q-1.5.73-3,1.5"/><path class="cls-2" d="M34.36,31.48c-.21.07-.27.14-.29.25a4.17,4.17,0,0,0,.2.75c.14.65.48,3.55.76,5.09.14.76,1.11,1.47,1.34,1.63a4.42,4.42,0,0,0,.88.41,2.07,2.07,0,0,0,.9,0c1.61-.28,2.62-2,2.28-4.1s-.46-3.2.11-4.34a1.52,1.52,0,0,0,.12-.36,4.23,4.23,0,0,0,.05-.5,5.8,5.8,0,0,0,0-.59c0-.22,0-.43,0-.65l-.06-.69-.09-.69c0-.22-.07-.44-.1-.66s-.07-.41-.11-.61L40.22,26c0-.18-.07-.37-.11-.56a2.24,2.24,0,0,0-.35-.75,1.6,1.6,0,0,0-.7-.59,1,1,0,0,0-.57,0c-.88.24-.8.8-.8.8s-.67-1-1.48-.8a1.08,1.08,0,0,0-.8.91S34.84,24,34,24.27a1.38,1.38,0,0,0-1,1.25c-.12.46-.35.68-1.49.8s-2.39,1-2.39,2.05a2.17,2.17,0,0,0,.95,1.94,4.93,4.93,0,0,0,2.22.58.6.6,0,0,0,.21,0c.27-.09.25-.31.19-.53,0-.05-.17-.41,0-.45s1.29-.25,1.44-.3A1.17,1.17,0,0,0,35,29a.89.89,0,0,0,.12-.39s.23,1,1,.91a2.06,2.06,0,0,0,1.59-1.59c.05-.17.56-.34.8.45.32,1-.8,2.17-1.94,2.51l-1.11.33c-.28.09-1.08.27-1.08.27"/><path class="cls-2" d="M66.44,85.31C57.86,87.39,46,83.92,44.23,83.12a1.09,1.09,0,0,1-.39-.32c-.28-.54.66-1,1-1.58a1.5,1.5,0,0,0-.08-2,1.47,1.47,0,0,0-1.89-.39A1.5,1.5,0,0,0,42,80.09a2.15,2.15,0,0,0,.33,1.12.6.6,0,0,1-.12.78c-.21.25-.45.1-.67,0l-3.16-1.35c-.46-.2-.62-.21-.41-.75a1.8,1.8,0,0,1,2.84-1c1-2.51,2.86-3.47,4.83-2.53a3.33,3.33,0,0,1,1.71,2,3.43,3.43,0,0,1-1,3.61c1.63.09,5-1.67,5.51-4.3a1.5,1.5,0,0,1,1-1.22c1.89-.79,3.76-1.63,5.65-2.42,1.6-.66,1.86-1.17,1.27-2.83a24.61,24.61,0,0,1-1-3.14c-.2-.94.14-1.37,1-1.57,1.75-.41,3.49-.87,5.25-1.29.56-.14.88-.28.53-1C64.74,62.62,64,61,63.21,59.36c-.18-.39-.4-.59-.85-.44a65.89,65.89,0,0,0-7.57,2.53c-1.76.83-2.16,1.81-1.76,3.69.14.68.22,1.37.33,2.06A4.27,4.27,0,0,1,52.08,71a10.1,10.1,0,0,1-5,2.65c-1.41.38-2,.06-2.55-1.35-.35-1-.56-2-.88-2.93-1.1-3.25-5.35-4.94-7.64-3.24.71,0,2.17.69,1.54,1.89A1,1,0,0,0,38,69.3c.62.33,1.57.84,1.59,1.15s-.3.27-.52.26c-3-.24-5.49.87-5.73,3,1.26-.62,2-.82,2.93.67.39.62,2.06.7,3,.85-2,1.92-2.08,3-1.94,4.5.06.66.15.65-.65.31-1.83-.79-2.25-1.54-1.36-3,.38-.59,0-.66-.35-.84a4.67,4.67,0,0,0-5.91,2.57c-.91,2.32.14,3.89,2.44,4.79a.13.13,0,0,0,.17-.11,6.39,6.39,0,0,1,.34-1.6c.46-1.27.95-1.49,2.11-.91,2,1,3.92,2.06,5.89,3.07.48.24.59.48.24.91A24.1,24.1,0,0,0,38.72,87a1.6,1.6,0,0,0,0,2.11,1.53,1.53,0,0,0,2.05.4,1.5,1.5,0,0,0,.58-2.1,1.49,1.49,0,0,1,.41-1.93.69.69,0,0,1,.69-.23c.26.06,2.35,1.25,2.48,1.32,7.33,4,15,6.1,23.41,4.32a12.86,12.86,0,0,0,4.67-2C70.3,88.83,67.16,88.29,66.44,85.31Z"/><path class="cls-2" d="M42.36,41.35c.82-.61,1.7-1.2.34-2.21-.38-.28-1.1-.86-1.69-.42a3.67,3.67,0,0,0-.58.6c-1.31,1.62-2.8,2-4.6.78-.59-.41-.88-.23-.82.52.09.93.13,1.88.17,2.82a.8.8,0,0,0,.46.78l1.83.93,1.88,1c.18.09.35.17.52.27a.68.68,0,0,0,.36.1c.16,0,.19-.18.19-.31s0-.06,0-.09a2.75,2.75,0,0,0-.17-.67,3.59,3.59,0,0,1-.11-.57,3,3,0,0,1,0-1,2.61,2.61,0,0,1,.38-.89,3.48,3.48,0,0,1,.67-.76,5.94,5.94,0,0,1,.92-.66l.22-.15"/><path class="cls-2" d="M46.87,34.59c-1.22.5-1.88,1.22-1.73,2.25a2.12,2.12,0,0,0,2.16,1.63A5.87,5.87,0,0,0,49.69,38c1.77-.6,3.49-1.35,5.58-.42a2.59,2.59,0,0,0-2.39-1.29,23,23,0,0,0-4.21.64c-1.91.26-2.63-.82-1.8-2.33"/><path class="cls-2" d="M44.58,47.87c.74.36,1.13.57,1.21-.53a6.47,6.47,0,0,1,.36-1.8,7.07,7.07,0,0,1,.43-.93c.41-.79,1.09-.9.77-1.46a3.4,3.4,0,0,0-1.28-.81c-1.85-1-1.85-.78-2.89-.23a4,4,0,0,0-1.7,1.47,2.56,2.56,0,0,0,.13,2,2.11,2.11,0,0,0,.7,1.12c.23.18,2.27,1.16,2.27,1.16"/><path class="cls-2" d="M51.54,24.91c-1.44.15-4.11.41-6,.63s-2,0-2-1.73a1.6,1.6,0,0,1,.49-1.09c.23-.23.57-.43.38-.81s-.65-.29-1-.27c-.78.05-1.55.16-2.32.26-.26,0-.62.09-.67.45A.64.64,0,0,0,41,23a1.79,1.79,0,0,1,.93,1.61c.19,1.79.45,3.57.67,5.36.1.85.28,1.73-.57,2.36a.52.52,0,0,0-.12.67c.14.29.41.21.65.18.73-.08,1.39-.11,2.11-.19.42,0,1-.09,1.14-.47.18-.54-.39-.61-.69-.86a2.35,2.35,0,0,1-.68-2.25.42.42,0,0,1,.27-.38h0c.18-.07,2.51-.25,2.83-.3a6.28,6.28,0,0,0,3.62-2.23A2,2,0,0,0,51.54,24.91Z"/><path class="cls-2" d="M83.9,70.9c0-3.06-.78-3.6-3.61-2.63-2,.68-2.74.39-3.47-1.61-.17-.47-2.39-7.24-2.45-7.42a.39.39,0,0,1,.33-.56,14.45,14.45,0,0,0,4.12-1.33,8.4,8.4,0,0,0,3.47-10.9c-.37-.61-1.92-.8-2.38-.64a.11.11,0,0,0,0,.17A6.9,6.9,0,0,1,81,49.45a6.63,6.63,0,0,1-5.51,6.68A8.05,8.05,0,0,1,72.88,56a11.26,11.26,0,0,1-3-1.2A12.22,12.22,0,0,1,65,47.59,3.86,3.86,0,0,0,63.32,50c-.75-.85-2.56-3-3-4.74A9.08,9.08,0,0,1,66,46.59a3.13,3.13,0,0,0,.73-2.17,4.68,4.68,0,0,0-1.71-3.66,13.64,13.64,0,0,0,1.34-.49,3.1,3.1,0,0,0,1.9-2.45,2,2,0,0,0-.21-1.21,2.18,2.18,0,0,1-1,.23,4.64,4.64,0,0,1-2.23-.45A6.67,6.67,0,0,0,67,35.09a1.77,1.77,0,0,1,1.08-.19,3.25,3.25,0,0,0-1.33-1.43A13.74,13.74,0,0,0,65,32.64c.65-1,1.87-.31,2.45-1.51a27.25,27.25,0,0,0-2.74-1.23c-.93-.32-1.18-.73-.59-1.56s.1-1-.62-1.15a3.36,3.36,0,0,0-2.37.4,1.49,1.49,0,0,1-1.6,0c-1.75-.81-3.53-1.55-5.26-2.38-.67-.33-.95-.18-1.14.47A5.36,5.36,0,0,1,51.58,28c-.92.88-2.1,1.83-3,2.75-.45.47-.67,1.05-.11,1.49a1.63,1.63,0,0,1,.68,1.19c.11.75.84,1,1.55,1.11a1.41,1.41,0,0,1,.94.6,3.92,3.92,0,0,1,.57-1.09A2.8,2.8,0,0,1,55,33a2.59,2.59,0,0,1,2.05,1.91,4.65,4.65,0,0,1-1.58,5.17,3.1,3.1,0,0,1-1.83.6A4.35,4.35,0,0,1,50.06,39a2.33,2.33,0,0,0-.71,1.93c-.1,1.22-1.69,1.63-.11,2.48.23.12-.15.42-.3.58-1,1.11-1.76,1.88-1.85,3.14a4.12,4.12,0,0,0,.13,1.17,1.89,1.89,0,0,1,.71-.59c1-.57,1.38.16,3.21-.84-1.4,2.91-7.39,4.86-12.59,5.39a1.67,1.67,0,0,1-2-1.54,7.51,7.51,0,0,0-.85-2.42C34.21,45.65,29.64,44,28.47,46c1-.13,1.81.6,1.42,2.07-.27,1,1.73,1.45,2.31,2.39-2.89-.19-5.67,1.06-6.33,3.47,1.17-.84,2.4-1,3,.47.32.77,2.26.52,3.05.59-1.05,2.26-1.44,3.49-.23,4.92-.08-1.1.61-1.62,1.09-1.33,1.59.94,2.42.76,3.56-.66.92-1.13.92-1.1,1.83,0,.6.74-.11,1.24-.4,1.43a3.54,3.54,0,0,0,4-2.19c.22-.51.39-.89,1.06-1,3.28-.51,6.55-1.08,9.82-1.67A1.46,1.46,0,0,1,54.2,55a6.22,6.22,0,0,0,3.12,1.84,29.27,29.27,0,0,0,6,.94,1.31,1.31,0,0,1,1.27.9c1.29,2.83,2.69,5.61,4,8.46a6,6,0,0,0,3.15,3.11,16.87,16.87,0,0,0,3.26,1.09,5.43,5.43,0,0,1,4,6.09,1.25,1.25,0,0,1-1.61,1.21,7.1,7.1,0,0,1-2.78-1.26A7.78,7.78,0,0,0,72,76.18c-2.7-.56-5.81.7-6.16,3,1-.52,2-.38,2.44.87.14.41,1.7.23,2.32.29.22,0,.57.2.35.38-2.14,1.57-3,3.92-2,6,.33-1,.71-2.17,2.35-1.28.48.26.88-.07,1.27-.3.55-.33,1.08-.68,1.7-1.07A6.15,6.15,0,0,0,76.58,89a4.4,4.4,0,0,1,.09-2.84c1.39.43,1.85.22,2.33-1.14.27-.73.5-2.65,1.11-3a1,1,0,0,1,1.35.77,1.72,1.72,0,0,1,0,1c1.36-.74,2-1.84,2.25-3.87A81.31,81.31,0,0,0,83.9,70.9Zm-27.64-42-1.62.61a2.33,2.33,0,0,1-.52.13.75.75,0,0,1-.44-.09.81.81,0,0,1-.27-.56,1.87,1.87,0,0,1,.05-.88,1.07,1.07,0,0,1,.18-.39A.79.79,0,0,1,54,27.5a1.14,1.14,0,0,1,.81.08,8.87,8.87,0,0,1,1.35.84l.46.35Z"/><path class="cls-2" d="M82.63,24.56c1.61-.23,2.75-1.28,4.05-2.12a9.5,9.5,0,0,0-3.5-.8c-2.32.16-4.53.38-7,.64-1.69.17-3.48,1.57-4.77,3.9,2.93-.41,7.48-1.07,11.18-1.62"/><path class="cls-2" d="M87.08,35.72a7.37,7.37,0,0,0-8.74-6.13c-5.24.93-7.86,5.54-5.75,10.12.76,1.68,1.75,2.42,3.88,1.88a.12.12,0,0,0,.06-.2,7.6,7.6,0,0,1-1.9-2.76c-1.12-2.7-.14-5.42,3.05-6.62a5.46,5.46,0,0,1,7,2.92,5,5,0,0,1-2.91,6.74,18.43,18.43,0,0,1-3.37.95,28.28,28.28,0,0,0-5.76,1.75,6.42,6.42,0,0,0-.9.47,4.54,4.54,0,0,0-1.08.87,1.93,1.93,0,0,0-.45.77.36.36,0,0,0,0,.11c-.21,1,.87,1.17.87,1.17a1.86,1.86,0,0,0-.17,2.87,2,2,0,0,0,1,.55c-.29-1.77,1-1.86,1-1.86A2.72,2.72,0,0,0,74,51.06c.77.47,2.25-.07,2.31-.72a2.75,2.75,0,0,1-1.5-2.55,3,3,0,0,1,2.43-2.92c1.22-.28,3.78-.73,4.22-.84a8,8,0,0,0,4.46-2.91,7.05,7.05,0,0,0,1.21-5.4"/><path class="cls-2" d="M54.1,23.86l3,1.36,3.39,1.51.07,0a4.2,4.2,0,0,1,2.25-.62,6.35,6.35,0,0,1,.85.07,2,2,0,0,1,1.66,1.05,1.7,1.7,0,0,1-.24,1.6l2,.88a.31.31,0,0,0,.4-.15,24.05,24.05,0,0,1,5-6.63,2.68,2.68,0,0,0-2.87.62c-.32.29-.49.5-.78.22a1.5,1.5,0,0,0-1.81-.31,2.17,2.17,0,0,1,.3,2.37c-.3.67-.74.71-1.09.56s-.74-.49-.56-1.73c-.81,1-1.37.86-1.66.73s-.62-.51-.31-1.19a2.15,2.15,0,0,1,2-1.35,1.38,1.38,0,0,0-.39-1.43c-.48-.33-.39-.8-.16-1.42a1.74,1.74,0,0,0-.65-1.91,1.73,1.73,0,0,0-1.85.79c-.31.59-.6,1-1.16.82a1.42,1.42,0,0,0-1.34.66,2.17,2.17,0,0,1,.3,2.37c-.3.68-.74.72-1.09.56s-.74-.48-.56-1.73c-.81,1-1.37.87-1.66.73s-.62-.51-.32-1.18a2.2,2.2,0,0,1,2-1.36,1.49,1.49,0,0,0-1.43-1.14c-.4,0-.36-.29-.36-.73a2.67,2.67,0,0,0-1.44-2.55A24.34,24.34,0,0,1,54,23.46.3.3,0,0,0,54.1,23.86Z"/><path class="cls-3" d="M356.18,70.68h-1.84V68.21h-1.75v2.47h-1.81v1.45h1.81V80h1.75V72.13h1.84Zm-10.09-.28A3.58,3.58,0,0,0,343,72l-.17-1.3H341.4V80h1.75V74.47A2.36,2.36,0,0,1,345.66,72c1.27,0,2.14.72,2.14,2.64V80h1.77V74.22c0-2.47-1.42-3.82-3.48-3.82m-14,4.2A2.72,2.72,0,0,1,335,71.88a2.57,2.57,0,0,1,2.7,2.72Zm7.4,2.59h-1.71a2.73,2.73,0,0,1-2.7,1.61,2.86,2.86,0,0,1-3-2.93h7.32a4.89,4.89,0,0,0,.08-1.06A4.22,4.22,0,0,0,335,70.4a4.92,4.92,0,0,0,.06,9.83,4.25,4.25,0,0,0,4.41-3M325.12,70.4a3.17,3.17,0,0,0-3,1.88,3.3,3.3,0,0,0-5.72-.42l-.12-1.18h-1.57V80h1.76V74.28a2.22,2.22,0,0,1,2.19-2.36,2,2,0,0,1,2.07,2.3V80h1.73V74.3a2.22,2.22,0,0,1,2.23-2.38c1.21,0,2,.7,2,2.3V80h1.73V73.84a3.12,3.12,0,0,0-3.31-3.44m-16.33,0A3.59,3.59,0,0,0,305.73,72l-.17-1.3h-1.45V80h1.75V74.47A2.36,2.36,0,0,1,308.37,72c1.27,0,2.13.72,2.13,2.64V80h1.77V74.22c0-2.47-1.41-3.82-3.48-3.82M294,75.34a3.21,3.21,0,1,1,3.18,3.33A3.17,3.17,0,0,1,294,75.34m-1.82,0a5,5,0,1,0,5-4.94,4.8,4.8,0,0,0-5,4.94m-1.46-4.75a2.37,2.37,0,0,0-2.41,1.5l-.21-1.41h-1.54V80h1.75V75c0-2,1.21-3.08,3.29-2.79V70.68a4.11,4.11,0,0,0-.88-.09M282.29,80h1.76v-9.3h-1.76Zm.87-11.58a1.26,1.26,0,0,0,1.29-1.29,1.22,1.22,0,0,0-1.29-1.24,1.24,1.24,0,0,0-1.29,1.24,1.27,1.27,0,0,0,1.29,1.29m-11.61,2.28L275.3,80h1.75l3.88-9.3H279.1l-1.16,2.93c-.59,1.47-1.73,4.51-1.73,4.51s-1.08-3-1.67-4.51l-1.09-2.93Zm-4.34-.28A3.58,3.58,0,0,0,264.15,72l-.17-1.3h-1.46V80h1.75V74.47A2.36,2.36,0,0,1,266.78,72c1.27,0,2.13.72,2.13,2.64V80h1.78V74.22c0-2.47-1.42-3.82-3.48-3.82m-6.67-2.23V66.46h-8.35V80h8.35V78.29H254V74h5.91V72.38H254V68.17ZM237.63,74.6a2.72,2.72,0,0,1,2.91-2.72,2.57,2.57,0,0,1,2.7,2.72Zm7.4,2.59h-1.7a2.74,2.74,0,0,1-2.7,1.61,2.86,2.86,0,0,1-3-2.93h7.32a4.89,4.89,0,0,0,.08-1.06,4.22,4.22,0,0,0-4.45-4.41,4.92,4.92,0,0,0,.07,9.83,4.25,4.25,0,0,0,4.4-3M225.83,80h1.75V74.47A2.39,2.39,0,0,1,230.13,72c1.06,0,2.13.55,2.13,2.64V80H234V74.22c0-2.47-1.35-3.82-3.43-3.82a3.49,3.49,0,0,0-3,1.54V65.51h-1.75Zm-1.42-9.3h-1.83V68.21h-1.75v2.47H219v1.45h1.82V80h1.75V72.13h1.83ZM212.58,66.9a3.17,3.17,0,0,1,.68.06V65.51a5,5,0,0,0-1-.09c-1.85,0-3,.85-3,3.06v2.2h-1.69v1.45h1.69V80H211V72.13h2.28V70.68H211V68.82c0-.8,0-1.92,1.6-1.92m-13.89,8.44a3.21,3.21,0,1,1,3.19,3.33,3.17,3.17,0,0,1-3.19-3.33m-1.81,0a5,5,0,1,0,5-4.94,4.8,4.8,0,0,0-5,4.94m-7.78-4.66-2.85,7.59-2.93-7.59h-1.88l4,9.78-.33.89a1.85,1.85,0,0,1-2,1.46,6.12,6.12,0,0,1-1.18-.15v1.43a5.7,5.7,0,0,0,1.46.21c1.87,0,2.74-1,3.35-2.51L191,70.68Zm-9.34-.09a2.37,2.37,0,0,0-2.41,1.5l-.21-1.41H175.6V80h1.75V75c0-2,1.21-3.08,3.29-2.79V70.68a4.11,4.11,0,0,0-.88-.09m-5.57.09h-1.84V68.21H170.6v2.47h-1.81v1.45h1.81V80h1.75V72.13h1.84ZM164.1,80.23c2.28,0,3.73-1.12,3.73-2.89a2.57,2.57,0,0,0-2.3-2.59l-1.87-.42c-.55-.13-1.33-.34-1.33-1.25s.67-1.33,1.71-1.33a1.68,1.68,0,0,1,1.9,1.54h1.7c-.06-1.73-1.47-2.89-3.58-2.89s-3.5,1.12-3.5,2.83c0,1.2.67,2.17,2.38,2.55l1.64.38c.62.13,1.44.38,1.44,1.35s-.74,1.37-1.92,1.37-2-.53-2.09-1.5H160.3c.11,1.73,1.63,2.85,3.8,2.85M156.65,80h1.75v-9.3h-1.75Zm.86-11.58a1.26,1.26,0,0,0,1.29-1.29,1.22,1.22,0,0,0-1.29-1.24,1.24,1.24,0,0,0-1.29,1.24,1.27,1.27,0,0,0,1.29,1.29m-6.74,2A3.59,3.59,0,0,0,147.71,72l-.17-1.3h-1.45V80h1.75V74.47A2.36,2.36,0,0,1,150.35,72c1.27,0,2.13.72,2.13,2.64V80h1.77V74.22c0-2.47-1.41-3.82-3.48-3.82M141.83,80h1.75v-9.3h-1.75Zm.87-11.58A1.25,1.25,0,0,0,144,67.11a1.21,1.21,0,0,0-1.28-1.24,1.24,1.24,0,0,0-1.29,1.24,1.27,1.27,0,0,0,1.29,1.29m-5.29-1.94-4.7,11.07-4.66-11.07h-1.73V80h1.79V75.61c0-2.11-.06-3.58-.19-5.15l3.9,9.14h1.71l4-9.22c-.09,1.52-.15,2.89-.15,5.23V80h1.79V66.48Z"/><path class="cls-3" d="M251.59,49h-1.84V46.51H248V49h-1.81v1.45H248v7.85h1.75V50.43h1.84ZM238,52.9a2.72,2.72,0,0,1,2.91-2.72,2.57,2.57,0,0,1,2.7,2.72Zm7.4,2.6h-1.71a2.72,2.72,0,0,1-2.7,1.6,2.88,2.88,0,0,1-3-2.93h7.32A4.56,4.56,0,0,0,241,48.7a4.56,4.56,0,0,0-4.69,4.9A4.58,4.58,0,0,0,241,58.53a4.26,4.26,0,0,0,4.41-3m-12.81,2.78h1.75V49h-1.75Zm.86-11.58a1.26,1.26,0,0,0,1.29-1.29,1.22,1.22,0,0,0-1.29-1.24,1.24,1.24,0,0,0-1.28,1.24,1.27,1.27,0,0,0,1.28,1.29m-3.12,2.19a2.36,2.36,0,0,0-2.4,1.5L227.75,49h-1.54v9.3H228v-5c0-2,1.2-3.08,3.29-2.78V49a5,5,0,0,0-.89-.09m-13.49,4a2.72,2.72,0,0,1,2.91-2.72,2.57,2.57,0,0,1,2.7,2.72Zm7.41,2.6h-1.71a2.73,2.73,0,0,1-2.7,1.6,2.87,2.87,0,0,1-3-2.93h7.32a4.89,4.89,0,0,0,.08-1.06,4.22,4.22,0,0,0-4.45-4.41,4.55,4.55,0,0,0-4.68,4.9,4.58,4.58,0,0,0,4.75,4.93,4.27,4.27,0,0,0,4.41-3M214.41,49h-1.84V46.51h-1.75V49H209v1.45h1.81v7.85h1.75V50.43h1.84Zm-10.09,9.55c2.28,0,3.73-1.11,3.73-2.89a2.57,2.57,0,0,0-2.3-2.59l-1.88-.42c-.54-.13-1.32-.34-1.32-1.25s.67-1.33,1.7-1.33,1.86.57,1.9,1.54h1.71c-.06-1.73-1.47-2.89-3.58-2.89s-3.51,1.12-3.51,2.83c0,1.2.68,2.17,2.39,2.55l1.64.38c.61.13,1.44.38,1.44,1.35s-.74,1.37-1.92,1.37-2-.52-2.09-1.49h-1.71c.11,1.73,1.62,2.84,3.8,2.84m-7.46-.25h1.76V49h-1.76Zm.87-11.58A1.26,1.26,0,0,0,199,45.41a1.22,1.22,0,0,0-1.29-1.24,1.25,1.25,0,0,0-1.29,1.24,1.27,1.27,0,0,0,1.29,1.29m-6.74,2a3.59,3.59,0,0,0-3.06,1.59L187.76,49h-1.45v9.28h1.75V52.77a2.35,2.35,0,0,1,2.51-2.48c1.26,0,2.13.71,2.13,2.63v5.36h1.77V52.52c0-2.47-1.41-3.82-3.48-3.82m-8.94,9.58h1.75V49h-1.75Zm.86-11.58a1.25,1.25,0,0,0,1.29-1.29,1.22,1.22,0,0,0-1.29-1.24,1.24,1.24,0,0,0-1.28,1.24,1.27,1.27,0,0,0,1.28,1.29m-6.6,2a3.18,3.18,0,0,0-3,1.88,3.29,3.29,0,0,0-5.71-.42L167.45,49h-1.56V58.3h1.75V52.58a2.22,2.22,0,0,1,2.19-2.36,2,2,0,0,1,2.07,2.3V58.3h1.73V52.61a2.22,2.22,0,0,1,2.24-2.39c1.2,0,2,.7,2,2.3V58.3h1.73V52.14a3.12,3.12,0,0,0-3.31-3.44m-20.54,4.94A3.21,3.21,0,1,1,159,57a3.17,3.17,0,0,1-3.18-3.33m-1.82,0a5,5,0,1,0,5-4.94,4.8,4.8,0,0,0-5,4.94m6.77-5.8a1,1,0,0,0,1.06-1,1.07,1.07,0,1,0-2.13,0,1,1,0,0,0,1.07,1m-3.54,0a1.05,1.05,0,0,0,1.08-1,1.08,1.08,0,0,0-2.16,0,1.05,1.05,0,0,0,1.08,1m-6.83,14.6h1.75V49h-1.75Zm.86-15.74a1.26,1.26,0,0,0,1.29-1.29,1.22,1.22,0,0,0-1.29-1.24,1.25,1.25,0,0,0-1.29,1.24,1.27,1.27,0,0,0,1.29,1.29m-5.13,11.58h1.75V43.81h-1.75Zm-4.25,0h1.75V49h-1.75Zm.87-11.58A1.25,1.25,0,0,0,144,45.41a1.21,1.21,0,0,0-1.28-1.24,1.25,1.25,0,0,0-1.29,1.24,1.27,1.27,0,0,0,1.29,1.29m-5.29-1.94-4.7,11.07-4.66-11.07h-1.73V58.28h1.79V53.91c0-2.11-.06-3.58-.19-5.14l3.9,9.13h1.71l4-9.22c-.09,1.52-.15,2.89-.15,5.23v4.37h1.79V44.78Z"/><path class="cls-3" d="M284.3,31.94a3.21,3.21,0,1,1,6.41,0,3.21,3.21,0,1,1-6.41,0m-1.81,0a5,5,0,1,0,5-4.93,4.79,4.79,0,0,0-5,4.93m6.77-5.8a1.06,1.06,0,0,0,0-2.11,1.06,1.06,0,1,0,0,2.11m-3.55,0a1.06,1.06,0,1,0-1.07-1,1,1,0,0,0,1.07,1m-6.83,10.44h1.75v-9.3h-1.75ZM279.74,25A1.26,1.26,0,0,0,281,23.71a1.22,1.22,0,0,0-1.29-1.24,1.24,1.24,0,0,0-1.28,1.24A1.26,1.26,0,0,0,279.74,25m-3.12,2.2a2.35,2.35,0,0,0-2.4,1.49L274,27.28h-1.54v9.3h1.75v-5c0-2,1.2-3.08,3.29-2.78v-1.5a5.12,5.12,0,0,0-.89-.08m-13.49,4A2.73,2.73,0,0,1,266,28.48a2.58,2.58,0,0,1,2.7,2.72Zm7.41,2.6h-1.71a2.73,2.73,0,0,1-2.7,1.6,2.87,2.87,0,0,1-3-2.93h7.32a4.89,4.89,0,0,0,.08-1.06,4.21,4.21,0,0,0-4.45-4.4,4.55,4.55,0,0,0-4.68,4.89,4.59,4.59,0,0,0,4.75,4.94,4.28,4.28,0,0,0,4.41-3m-9.87-6.52h-1.84V24.81h-1.75v2.47h-1.82v1.46h1.82v7.84h1.75V28.74h1.84Zm-10.09,9.56c2.28,0,3.73-1.12,3.73-2.89a2.57,2.57,0,0,0-2.3-2.6l-1.88-.42c-.54-.13-1.32-.34-1.32-1.25s.67-1.32,1.7-1.32,1.86.57,1.9,1.54h1.71c-.06-1.73-1.48-2.89-3.58-2.89S247,28.12,247,29.83c0,1.2.68,2.17,2.39,2.55l1.64.38c.61.13,1.44.38,1.44,1.35s-.74,1.38-1.92,1.38-2-.53-2.09-1.5h-1.71c.11,1.73,1.62,2.85,3.8,2.85m-7.46-.26h1.76v-9.3h-1.76ZM244,25a1.26,1.26,0,0,0,1.29-1.29A1.22,1.22,0,0,0,244,22.47a1.25,1.25,0,0,0-1.29,1.24A1.27,1.27,0,0,0,244,25m-6.74,2a3.58,3.58,0,0,0-3.06,1.58L234,27.28h-1.45v9.28h1.75V31.08a2.35,2.35,0,0,1,2.51-2.49c1.26,0,2.13.71,2.13,2.63v5.36h1.77V30.82c0-2.46-1.41-3.81-3.48-3.81m-8.94,9.57h1.75v-9.3h-1.75ZM229.17,25a1.26,1.26,0,0,0,1.29-1.29,1.22,1.22,0,0,0-1.29-1.24,1.24,1.24,0,0,0-1.28,1.24A1.27,1.27,0,0,0,229.17,25m-6.6,2a3.17,3.17,0,0,0-3,1.87,3.3,3.3,0,0,0-5.71-.42l-.13-1.18h-1.56V36.6h1.75V30.89a2.22,2.22,0,0,1,2.19-2.37,2,2,0,0,1,2.07,2.3V36.6h1.73V30.91a2.22,2.22,0,0,1,2.24-2.39c1.2,0,2,.7,2,2.3V36.6h1.73V30.44A3.12,3.12,0,0,0,222.57,27M202,31.94a3.21,3.21,0,1,1,6.41,0,3.21,3.21,0,1,1-6.41,0m-1.82,0a5,5,0,1,0,5-4.93,4.8,4.8,0,0,0-5,4.93m6.77-5.8a1.06,1.06,0,1,0-1.07-1,1,1,0,0,0,1.07,1m-3.54,0a1.06,1.06,0,1,0-1.08-1,1,1,0,0,0,1.08,1m-3.87,1.14h-1.84V24.81H196v2.47h-1.81v1.46H196v7.84h1.75V28.74h1.84Zm-10.09,9.56c2.28,0,3.73-1.12,3.73-2.89a2.57,2.57,0,0,0-2.3-2.6L189,30.93c-.55-.13-1.33-.34-1.33-1.25s.67-1.32,1.71-1.32,1.85.57,1.89,1.54H193C193,28.17,191.55,27,189.44,27s-3.5,1.11-3.5,2.82c0,1.2.67,2.17,2.38,2.55l1.64.38c.62.13,1.44.38,1.44,1.35s-.74,1.38-1.92,1.38-2-.53-2.09-1.5h-1.71c.11,1.73,1.63,2.85,3.8,2.85M182,36.58h1.75v-9.3H182ZM182.89,25a1.26,1.26,0,0,0,1.29-1.29,1.22,1.22,0,0,0-1.29-1.24,1.25,1.25,0,0,0-1.29,1.24A1.27,1.27,0,0,0,182.89,25m-3.12,2.2a2.34,2.34,0,0,0-2.4,1.49l-.21-1.41h-1.54v9.3h1.75v-5c0-2,1.2-3.08,3.29-2.78v-1.5a5.12,5.12,0,0,0-.89-.08M168.3,35.25c-1.8,0-3-1.33-3-3.33a3,3,0,0,1,3-3.33,3,3,0,0,1,3,3.29c0,2-1.22,3.37-3,3.37m3.39-8-.15,1.5A3.91,3.91,0,0,0,168,27c-2.66,0-4.53,2-4.53,4.95s1.83,4.88,4.41,4.88a4,4,0,0,0,3.58-1.9v1.64h1.65v-9.3ZM169.79,26a1,1,0,0,0,1.06-1,1.07,1.07,0,1,0-2.13,0,1,1,0,0,0,1.07,1m-3.54,0a1,1,0,0,0,1.08-1,1.08,1.08,0,0,0-2.16,0,1,1,0,0,0,1.08,1m-9,9.28c-1.8,0-3-1.26-3-3.29s1.2-3.37,3-3.37,3,1.31,3,3.33a3,3,0,0,1-3,3.33M157.6,27A4,4,0,0,0,154,28.93l-.15-1.65h-1.43V40.74h1.7V35.19a3.92,3.92,0,0,0,3.42,1.65c2.64,0,4.52-2,4.52-4.9S160.22,27,157.6,27m-10.91,0a3.17,3.17,0,0,0-3,1.87,3.3,3.3,0,0,0-5.71-.42l-.13-1.18h-1.56V36.6H138V30.89a2.22,2.22,0,0,1,2.19-2.37,2,2,0,0,1,2.07,2.3V36.6H144V30.91a2.22,2.22,0,0,1,2.24-2.39c1.2,0,2,.7,2,2.3V36.6H150V30.44A3.12,3.12,0,0,0,146.69,27m-21.74-4,4.72,8v5.57h1.84V31l4.66-8h-2l-1.81,3.16c-.93,1.61-1.73,3.08-1.73,3.08s-.72-1.41-1.69-3.08l-1.81-3.16Z"/></g></g></svg>